<svg version="1.0" xmlns="http://www.w3.org/2000/svg" width="800.000000" height="800.000000" viewBox="0 0 800.000000 800.000000" preserveAspectRatio="xMidYMid meet">
  <metadata>
    <rdf:RDF xmlns:rdf="http://www.w3.org/1999/02/22-rdf-syntax-ns#" xmlns:rdfs="http://www.w3.org/2000/01/rdf-schema#" xmlns:dc="http://purl.org/dc/elements/1.1/">
      <rdf:Description dc:format="image/svg+xml" dc:Label="1" dc:ContentProducer="001191330110MACRLGPT8B00000" dc:ProduceID="374710950" dc:ReservedCode1="uA36PBXQK4L9wisG5jYWFEtnC/N5EzGCd0xNm0PD+pM=" dc:ContentPropagator="001191330110MACRLGPT8B00000" dc:PropagateID="374710950" dc:ReservedCode2="uA36PBXQK4L9wisG5jYWFEtnC/N5EzGCd0xNm0PD+pM="/>
    </rdf:RDF>
  </metadata>
  <g transform="translate(184.623007,629.073308) scale(0.055585,-0.055585)" fill="#000000" stroke="none">
    <path d="M3579 7880 c-134 -22 -209 -41 -334 -84 -373 -126 -732 -334 -1030 -594 -325 -284 -617 -788 -815 -1407 -72 -226 -138 -545 -161 -778 -13 -139 -13 -586 1 -727 31 -315 102 -680 171 -870 132 -366 348 -764 543 -998 203 -244 659 -584 962 -716 163 -72 410 -151 579 -185 107 -22 155 -36 169 -51 28 -27 31 -108 17 -368 -6 -114 -11 -286 -12 -383 0 -154 2 -182 21 -231 48 -129 178 -181 298 -119 46 24 75 55 98 106 16 37 18 81 18 515 1 261 5 483 9 492 5 10 25 20 45 24 325 55 472 100 697 214 270 137 491 304 770 584 308 309 448 520 608 916 203 500 287 938 287 1485 0 176 -28 534 -55 721 -53 352 -233 821 -453 1177 -168 273 -598 736 -831 896 -248 170 -680 328 -1056 387 -128 20 -412 17 -546 -6z m476 -366 c233 -37 501 -121 710 -225 439 -217 872 -723 1110 -1294 169 -405 212 -701 202 -1368 -5 -346 -13 -435 -56 -673 -64 -356 -223 -779 -385 -1029 -112 -172 -362 -439 -566 -602 -126 -102 -317 -231 -409 -277 -165 -84 -501 -168 -723 -182 -222 -15 -632 84 -905 216 -189 92 -461 283 -623 437 -308 292 -597 845 -699 1333 -75 361 -96 532 -95 800 2 316 49 628 150 990 99 352 312 799 506 1060 230 310 646 591 1098 743 273 92 436 109 685 71z"/>
    <path d="M3847 5969 c-26 -17 -87 -74 -135 -127 -48 -53 -290 -299 -538 -547 -500 -499 -491 -487 -465 -583 32 -120 141 -185 225 -133 17 11 144 136 281 277 138 141 322 323 410 403 483 441 467 425 496 486 24 51 24 106 0 153 -38 73 -87 102 -175 102 -42 0 -62 -6 -99 -31z"/>
    <path d="M4855 5318 c-46 -17 -81 -50 -232 -223 -78 -88 -167 -185 -199 -215 -33 -31 -176 -166 -319 -300 -655 -617 -952 -916 -995 -1000 -14 -27 -20 -59 -20 -102 0 -76 28 -125 86 -153 47 -22 149 -23 190 -2 17 9 102 94 189 189 186 204 716 733 1034 1032 373 351 481 484 481 595 0 84 -39 145 -113 176 -42 17 -60 18 -102 3z"/>
  </g>
</svg>