<svg version="1.0" xmlns="http://www.w3.org/2000/svg" width="800.000000" height="800.000000" viewBox="0 0 800.000000 800.000000" preserveAspectRatio="xMidYMid meet">
  <metadata>
    <rdf:RDF xmlns:rdf="http://www.w3.org/1999/02/22-rdf-syntax-ns#" xmlns:rdfs="http://www.w3.org/2000/01/rdf-schema#" xmlns:dc="http://purl.org/dc/elements/1.1/">
      <rdf:Description dc:format="image/svg+xml" dc:Label="1" dc:ContentProducer="001191330110MACRLGPT8B00000" dc:ProduceID="374708787" dc:ReservedCode1="5IoIxTf6+y1U7439qhqO2ZRDCvlCzEBpTolYCobYg6I=" dc:ContentPropagator="001191330110MACRLGPT8B00000" dc:PropagateID="374708787" dc:ReservedCode2="5IoIxTf6+y1U7439qhqO2ZRDCvlCzEBpTolYCobYg6I="/>
    </rdf:RDF>
  </metadata>
  <g transform="translate(191.037909,619.836732) scale(0.053730,-0.053730)" fill="#000000" stroke="none">
    <path d="M505 7972 c-198 -78 -346 -225 -464 -460 l-41 -82 0 -3283 c0 -1806 4 -3287 8 -3293 5 -5 16 -30 26 -56 26 -71 108 -202 173 -276 131 -149 294 -233 528 -273 46 -8 244 -13 585 -15 1224 -6 2901 -25 2975 -34 141 -16 1128 -23 1335 -10 102 7 417 16 700 20 650 10 728 19 905 105 114 56 187 111 268 204 83 93 139 193 187 328 70 201 71 202 82 1053 9 670 8 860 -8 1530 -25 1006 -24 2232 1 2729 21 409 17 885 -9 1043 -59 367 -286 636 -654 774 l-62 24 -3233 0 -3232 -1 -70 -27z m6110 -254 c336 -36 489 -91 625 -228 88 -88 127 -159 163 -300 57 -221 61 -385 43 -1985 -6 -601 -5 -926 4 -1260 16 -548 17 -1663 2 -2260 -9 -386 -13 -451 -31 -529 -66 -283 -166 -430 -356 -520 -149 -72 -263 -85 -845 -96 -245 -5 -506 -14 -580 -19 -212 -16 -1059 -13 -1315 4 -161 11 -432 15 -1015 15 -536 0 -922 5 -1185 16 -214 8 -601 19 -860 24 -512 9 -537 11 -658 70 -130 63 -207 156 -276 333 -50 131 -77 245 -91 382 -5 61 -12 130 -15 155 -5 45 -16 313 -34 875 -6 173 -8 1029 -6 2025 3 1747 8 1984 44 2335 6 50 13 128 16 175 28 375 186 626 449 715 74 24 175 41 321 54 72 7 177 17 235 23 156 17 1384 24 3400 20 1702 -3 1783 -4 1965 -24z"/>
    <path d="M1175 7299 c-359 -41 -410 -60 -458 -168 -19 -43 -20 -58 -13 -274 3 -126 11 -284 17 -352 7 -88 7 -239 0 -517 -6 -216 -16 -577 -21 -803 -6 -225 -17 -546 -26 -713 -13 -255 -14 -366 -4 -695 6 -216 15 -435 20 -487 35 -332 39 -356 73 -425 42 -85 89 -115 223 -140 72 -14 197 -19 641 -25 485 -8 716 -19 775 -36 11 -3 21 -24 29 -62 41 -200 159 -472 269 -622 272 -370 751 -592 1219 -566 272 15 534 98 744 237 83 55 238 201 325 307 149 181 234 377 262 607 6 49 15 94 20 100 9 11 126 28 270 40 36 3 189 10 340 15 400 15 847 48 922 70 60 17 130 71 158 120 25 45 25 47 25 295 0 138 -6 409 -13 603 -14 401 -15 1589 -2 1912 33 822 34 856 22 1011 -22 289 -85 448 -206 512 -41 22 -44 22 -521 20 -264 -1 -802 -7 -1195 -14 -643 -11 -738 -10 -940 4 -333 25 -655 31 -875 17 -485 -31 -1042 -23 -1510 20 -214 20 -445 24 -570 9z m2659 -259 c61 -5 190 -17 286 -25 135 -12 371 -17 1025 -21 468 -3 929 -7 1025 -7 96 -1 265 0 375 3 l200 5 -3 -75 c-3 -75 -24 -381 -42 -605 -35 -441 -49 -2075 -22 -2670 6 -148 14 -340 18 -426 l6 -156 -94 -6 c-51 -4 -178 -14 -283 -22 -104 -8 -266 -15 -360 -15 -204 0 -606 -25 -726 -45 -114 -19 -168 -44 -213 -96 -40 -47 -42 -54 -125 -359 -95 -347 -112 -383 -242 -513 -77 -77 -150 -115 -338 -177 -198 -65 -263 -75 -471 -75 -164 1 -197 4 -296 27 -221 52 -369 131 -504 267 -129 130 -214 273 -263 441 -14 47 -39 135 -57 195 -47 164 -90 219 -200 261 -38 15 -103 19 -445 25 -598 12 -1038 26 -1057 34 -16 6 -18 22 -18 119 0 61 -5 170 -10 241 -44 577 -56 1110 -41 1833 9 464 9 742 0 1180 -7 357 -8 577 -2 583 14 14 340 39 599 46 127 3 357 1 515 -6 303 -13 955 -2 1128 19 88 11 330 26 455 29 39 0 120 -3 180 -9z"/>
    <path d="M3830 6423 c-711 -21 -752 -26 -830 -102 -38 -36 -53 -61 -71 -116 -21 -66 -23 -93 -30 -445 -6 -313 -16 -550 -23 -550 -1 0 -67 -9 -147 -20 -79 -11 -227 -25 -329 -30 -244 -12 -303 -33 -331 -117 -14 -43 1 -111 37 -166 13 -20 318 -331 677 -691 359 -359 686 -693 727 -742 160 -189 215 -227 322 -226 123 2 194 56 495 374 121 128 348 356 504 507 686 662 779 772 767 914 -6 70 -34 108 -100 137 l-53 23 -185 -14 c-102 -8 -248 -14 -325 -14 l-140 0 0 210 c1 116 3 361 5 545 l5 335 -24 49 c-29 57 -83 100 -149 115 -114 27 -402 36 -802 24z m667 -274 c43 -6 80 -12 81 -14 7 -7 6 -190 -2 -631 l-9 -451 22 -46 c31 -65 89 -113 158 -133 48 -14 82 -16 193 -10 74 3 164 10 200 16 35 5 67 7 70 4 2 -3 -18 -27 -45 -52 -470 -440 -768 -734 -1065 -1052 -79 -85 -168 -176 -196 -202 l-51 -47 -124 120 c-423 413 -771 741 -978 924 -256 225 -331 293 -331 299 0 2 33 7 73 11 176 16 357 38 422 51 116 24 187 80 216 173 8 24 14 192 18 516 3 264 9 485 13 491 12 18 122 27 418 34 462 11 834 11 917 -1z"/>
  </g>
</svg>