<svg version="1.0" xmlns="http://www.w3.org/2000/svg" width="800.000000" height="800.000000" viewBox="0 0 800.000000 800.000000" preserveAspectRatio="xMidYMid meet">
  <metadata>
    <rdf:RDF xmlns:rdf="http://www.w3.org/1999/02/22-rdf-syntax-ns#" xmlns:rdfs="http://www.w3.org/2000/01/rdf-schema#" xmlns:dc="http://purl.org/dc/elements/1.1/">
      <rdf:Description dc:format="image/svg+xml" dc:Label="1" dc:ContentProducer="001191330110MACRLGPT8B00000" dc:ProduceID="374708951" dc:ReservedCode1="el5cKGrwArn3uqh1lJOldsfEi+MjL+noWUu6wfvXyPo=" dc:ContentPropagator="001191330110MACRLGPT8B00000" dc:PropagateID="374708951" dc:ReservedCode2="el5cKGrwArn3uqh1lJOldsfEi+MjL+noWUu6wfvXyPo="/>
    </rdf:RDF>
  </metadata>
  <g transform="translate(186.067035,627.997906) scale(0.055194,-0.055194)" fill="#000000" stroke="none">
    <path d="M5050 7921 c-276 -60 -504 -263 -724 -647 -122 -212 -230 -555 -272 -864 -20 -153 -24 -453 -6 -565 44 -279 112 -473 224 -638 86 -127 187 -206 384 -303 96 -47 113 -60 134 -95 34 -61 25 -126 -40 -280 -155 -371 -199 -468 -277 -614 -92 -171 -95 -175 -198 -335 -165 -255 -318 -429 -394 -450 -46 -12 -60 -7 -211 75 -269 145 -623 153 -1030 23 -284 -91 -521 -238 -745 -463 -239 -239 -390 -481 -506 -813 -115 -327 -102 -637 36 -899 140 -265 403 -490 716 -613 72 -29 265 -75 394 -96 246 -39 597 -13 835 61 293 91 685 302 1005 540 386 289 762 652 1195 1155 194 226 283 357 517 760 121 210 149 261 233 430 39 80 80 161 90 180 39 75 155 343 215 495 66 168 137 385 179 545 14 52 36 138 50 190 65 243 125 632 147 950 34 505 -93 1070 -329 1465 -67 112 -200 280 -299 377 -186 184 -373 301 -583 367 -121 38 -188 49 -380 61 -85 5 -182 12 -215 15 -39 3 -89 -2 -145 -14z m470 -426 c167 -27 274 -70 410 -166 292 -205 538 -630 610 -1054 43 -251 49 -515 20 -831 -22 -233 -96 -608 -172 -864 -22 -74 -45 -156 -52 -181 -79 -279 -346 -879 -537 -1204 -29 -49 -87 -153 -130 -230 -154 -279 -190 -333 -354 -540 -140 -175 -219 -261 -474 -515 -518 -517 -774 -718 -1151 -906 -573 -285 -888 -319 -1395 -148 -364 122 -578 391 -551 693 36 407 242 786 561 1035 245 192 465 285 745 317 189 21 307 -1 395 -76 66 -57 185 -120 264 -140 91 -23 228 -21 307 5 172 57 340 226 549 550 332 514 626 1071 684 1295 19 73 30 233 21 291 -12 72 -63 183 -116 251 -79 102 -168 166 -346 252 -135 64 -203 127 -253 233 -37 77 -77 225 -94 343 -30 203 7 545 90 831 35 121 43 143 125 308 147 295 295 432 491 454 123 15 250 13 353 -3z"/>
    <path d="M2465 6940 c-257 -67 -632 -257 -825 -418 -281 -235 -444 -440 -595 -747 -202 -413 -296 -793 -299 -1205 -1 -167 11 -225 58 -275 74 -79 217 -63 269 29 8 14 14 105 18 271 6 225 9 265 37 400 30 146 73 301 106 380 9 22 22 53 29 70 30 74 120 250 158 312 182 290 435 522 729 668 107 54 192 84 348 125 132 35 179 61 228 125 35 47 45 135 20 183 -29 56 -112 103 -180 101 -17 0 -62 -9 -101 -19z"/>
    <path d="M2597 6119 c-55 -13 -219 -99 -312 -163 -277 -194 -492 -456 -605 -740 -78 -199 -120 -464 -90 -572 17 -60 74 -119 121 -126 68 -10 133 23 165 84 8 15 19 69 24 120 12 114 50 265 92 367 66 159 131 256 257 381 151 150 303 254 453 310 69 25 132 89 142 143 15 82 -40 171 -121 195 -46 14 -72 14 -126 1z"/>
    <path d="M2813 5390 c-106 -48 -264 -189 -342 -305 -110 -164 -165 -375 -130 -499 24 -88 119 -147 200 -126 76 21 114 71 130 173 29 185 122 327 285 437 84 58 121 98 130 145 11 63 -34 148 -97 180 -39 21 -126 18 -176 -5z"/>
  </g>
</svg>