<svg version="1.0" xmlns="http://www.w3.org/2000/svg" width="800.000000" height="800.000000" viewBox="0 0 800.000000 800.000000" preserveAspectRatio="xMidYMid meet">
  <metadata>
    <rdf:RDF xmlns:rdf="http://www.w3.org/1999/02/22-rdf-syntax-ns#" xmlns:rdfs="http://www.w3.org/2000/01/rdf-schema#" xmlns:dc="http://purl.org/dc/elements/1.1/">
      <rdf:Description dc:format="image/svg+xml" dc:Label="1" dc:ContentProducer="001191330110MACRLGPT8B00000" dc:ProduceID="374706287" dc:ReservedCode1="sH2LYcmswu/hZiiVgAL7HO1tRy0FvfPiNMZCOU/TmRU=" dc:ContentPropagator="001191330110MACRLGPT8B00000" dc:PropagateID="374706287" dc:ReservedCode2="sH2LYcmswu/hZiiVgAL7HO1tRy0FvfPiNMZCOU/TmRU="/>
    </rdf:RDF>
  </metadata>
  <g transform="translate(36.580868,796.342956) scale(0.094703,-0.094703)" fill="#000000" stroke="none">
    <path d="M4119 5816 c-2 -2 -308 -9 -679 -15 -803 -14 -1055 -24 -1191 -51 -202 -39 -296 -84 -406 -195 -69 -70 -89 -99 -132 -186 -69 -143 -91 -255 -91 -466 0 -87 4 -205 10 -263 5 -58 14 -332 20 -610 17 -816 31 -934 136 -1097 68 -106 178 -192 308 -239 128 -46 252 -58 596 -56 325 1 706 15 890 32 58 5 227 16 375 25 149 8 305 19 349 25 79 10 139 36 150 66 5 12 20 4 73 -40 112 -93 220 -143 382 -177 164 -34 261 -24 489 47 334 104 521 269 611 540 40 120 54 246 41 377 -13 137 -32 202 -92 327 -44 92 -61 116 -137 190 -47 47 -103 93 -123 103 -48 23 -52 30 -34 65 28 55 36 182 36 592 0 475 -4 514 -75 656 -60 123 -128 190 -249 249 -191 93 -288 105 -827 105 -234 0 -428 -2 -430 -4z m695 -356 c211 -17 372 -58 449 -114 40 -29 84 -127 103 -231 13 -71 17 -152 16 -391 0 -166 -3 -311 -7 -323 -6 -20 -12 -21 -143 -21 -418 -1 -759 -207 -918 -556 -59 -130 -85 -235 -91 -365 -7 -154 15 -265 83 -414 2 -6 -22 -10 -63 -10 -101 -1 -426 -22 -833 -54 -101 -8 -470 10 -805 39 -66 6 -179 14 -251 19 -150 11 -212 33 -259 95 -60 79 -79 233 -100 796 -29 814 -11 1204 60 1312 45 68 176 114 385 137 136 14 465 31 840 41 179 5 408 14 510 20 478 27 843 34 1024 20z m531 -1475 c116 -29 163 -55 231 -127 187 -198 212 -511 59 -742 -67 -101 -151 -156 -303 -197 -105 -29 -330 -23 -437 11 -303 97 -444 450 -298 748 69 141 176 229 340 282 174 56 265 61 408 25z"/>
    <path d="M2540 4801 c-117 -29 -180 -86 -180 -160 0 -123 152 -177 538 -188 284 -8 436 17 513 86 34 30 42 44 46 83 7 57 -9 99 -49 133 -57 48 -106 55 -468 59 -289 3 -344 2 -400 -13z"/>
    <path d="M2500 3938 c-166 -28 -233 -198 -124 -317 83 -93 181 -104 829 -92 486 9 496 10 570 66 66 51 96 166 61 234 -22 42 -80 88 -128 103 -33 10 -177 13 -604 13 -309 0 -581 -3 -604 -7z"/>
    <path d="M4966 3819 c-37 -44 -33 -82 17 -136 23 -26 19 -33 -26 -48 -106 -34 -48 -165 74 -165 52 0 64 -9 54 -40 -5 -17 -15 -20 -61 -20 -85 0 -143 -37 -144 -92 0 -56 65 -97 158 -98 l32 0 0 -79 c0 -69 3 -81 25 -105 29 -32 82 -35 116 -7 20 16 24 30 29 102 l5 84 55 7 c160 19 137 198 -25 198 -34 0 -36 2 -33 28 3 25 7 27 55 32 65 7 103 38 103 86 0 25 -7 39 -30 55 l-29 22 29 34 c50 56 38 129 -25 153 -39 15 -63 5 -123 -54 -52 -49 -54 -50 -68 -31 -78 107 -140 131 -188 74z"/>
  </g>
</svg>