<svg version="1.0" xmlns="http://www.w3.org/2000/svg" width="800.000000" height="800.000000" viewBox="0 0 800.000000 800.000000" preserveAspectRatio="xMidYMid meet">
  <metadata>
    <rdf:RDF xmlns:rdf="http://www.w3.org/1999/02/22-rdf-syntax-ns#" xmlns:rdfs="http://www.w3.org/2000/01/rdf-schema#" xmlns:dc="http://purl.org/dc/elements/1.1/">
      <rdf:Description dc:format="image/svg+xml" dc:Label="1" dc:ContentProducer="001191330110MACRLGPT8B00000" dc:ProduceID="374710590" dc:ReservedCode1="g1Hw+ZS9dyM7J6fQ1XJfi3c4PXtDakQXvNpeliTUPpE=" dc:ContentPropagator="001191330110MACRLGPT8B00000" dc:PropagateID="374710590" dc:ReservedCode2="g1Hw+ZS9dyM7J6fQ1XJfi3c4PXtDakQXvNpeliTUPpE="/>
    </rdf:RDF>
  </metadata>
  <g transform="translate(152.850072,660.979998) scale(0.064533,-0.064533)" fill="#000000" stroke="none">
    <path d="M2175 6990 c-629 -25 -1002 -244 -1240 -728 -95 -193 -198 -497 -259 -767 -78 -345 -86 -432 -96 -1075 -8 -534 -6 -728 20 -1660 6 -212 10 -619 8 -905 l-3 -520 23 -57 c48 -120 111 -179 196 -186 29 -2 70 1 89 7 45 15 216 119 375 227 68 46 128 84 134 84 6 0 39 -18 72 -39 146 -92 394 -202 512 -226 87 -18 148 -9 242 35 90 42 442 229 474 251 14 11 33 19 40 19 8 0 89 -49 179 -108 268 -177 301 -192 420 -192 113 0 177 29 472 212 88 55 166 102 172 105 7 2 86 -45 176 -105 183 -122 247 -159 334 -191 132 -50 233 -47 317 9 52 34 92 105 108 189 13 67 13 294 0 561 -17 345 -40 911 -40 978 0 35 4 62 9 60 5 -1 46 -54 91 -115 135 -187 299 -347 431 -422 167 -93 387 -120 594 -71 67 16 204 84 274 135 303 223 577 726 686 1259 22 107 36 190 87 501 8 52 13 165 12 320 -3 524 -92 1029 -254 1442 -49 122 -176 369 -238 463 -71 105 -221 258 -328 333 -101 70 -223 130 -329 159 -78 22 -91 23 -555 22 -261 0 -713 -9 -1005 -18 -458 -15 -595 -16 -1010 -6 -264 6 -538 15 -610 20 -150 9 -338 9 -580 0z m595 -411 c78 -7 526 -12 1192 -13 587 -1 1070 -4 1073 -8 4 -4 -6 -26 -22 -50 -42 -63 -73 -118 -142 -254 -175 -351 -285 -717 -357 -1189 -13 -88 -18 -232 -24 -720 -4 -335 -13 -880 -20 -1210 -11 -570 -4 -1158 17 -1419 l6 -78 -69 49 c-136 96 -288 196 -320 209 -80 33 -140 17 -337 -90 -84 -45 -212 -114 -286 -151 l-134 -69 -85 44 c-47 25 -130 74 -185 108 -120 77 -232 132 -285 139 -58 8 -118 -15 -372 -142 -124 -62 -254 -125 -288 -139 l-63 -26 -89 29 c-103 35 -240 102 -343 168 -198 127 -260 125 -476 -19 -57 -38 -105 -67 -107 -66 -1 2 -5 167 -8 368 -2 201 -11 457 -18 570 -15 237 -17 991 -5 1730 7 432 12 521 33 698 55 453 174 843 348 1142 67 116 167 212 272 264 43 21 86 42 95 47 63 30 262 68 434 82 99 8 452 5 565 -4z m3109 -64 c139 -37 250 -126 356 -284 235 -353 408 -1041 409 -1621 1 -242 -14 -364 -85 -723 -87 -443 -240 -777 -456 -995 -127 -128 -299 -163 -461 -92 -194 86 -446 430 -538 737 -106 355 -154 698 -154 1113 0 404 50 711 170 1040 105 288 235 535 367 697 96 119 245 167 392 128z"/>
    <path d="M3390 4665 c-46 -21 -77 -51 -103 -100 -19 -35 -21 -53 -18 -145 8 -233 5 -561 -8 -850 -8 -173 -11 -398 -8 -520 7 -305 36 -407 128 -459 57 -32 152 -26 204 13 43 33 79 95 95 166 14 59 10 325 -11 745 -6 128 -8 339 -4 505 10 445 -10 563 -105 626 -50 33 -121 41 -170 19z"/>
  </g>
</svg>