<svg version="1.0" xmlns="http://www.w3.org/2000/svg" width="800.000000" height="800.000000" viewBox="0 0 800.000000 800.000000" preserveAspectRatio="xMidYMid meet">
  <metadata>
    <rdf:RDF xmlns:rdf="http://www.w3.org/1999/02/22-rdf-syntax-ns#" xmlns:rdfs="http://www.w3.org/2000/01/rdf-schema#" xmlns:dc="http://purl.org/dc/elements/1.1/">
      <rdf:Description dc:format="image/svg+xml" dc:Label="1" dc:ContentProducer="001191330110MACRLGPT8B00000" dc:ProduceID="374706289" dc:ReservedCode1="dLH/0w7EwvkHlgBJr/UmkfED7DZwR4+jnNGEBYBTRn4=" dc:ContentPropagator="001191330110MACRLGPT8B00000" dc:PropagateID="374706289" dc:ReservedCode2="dLH/0w7EwvkHlgBJr/UmkfED7DZwR4+jnNGEBYBTRn4="/>
    </rdf:RDF>
  </metadata>
  <g transform="translate(2.066576,830.320623) scale(0.103303,-0.103303)" fill="#000000" stroke="none">
    <path d="M3685 6188 c-146 -27 -332 -105 -469 -197 -39 -25 -109 -85 -158 -132 -54 -53 -114 -100 -158 -124 -166 -91 -327 -256 -409 -420 -48 -96 -100 -249 -109 -325 l-7 -55 -60 -7 c-166 -21 -279 -96 -338 -226 -18 -39 -22 -71 -25 -192 -3 -80 1 -212 7 -295 7 -82 16 -240 21 -350 12 -265 43 -417 122 -600 59 -138 111 -217 207 -318 176 -184 395 -309 621 -354 101 -21 849 -30 1076 -13 88 6 269 13 404 16 278 6 338 13 465 56 461 156 765 522 845 1018 19 115 37 576 32 791 -6 285 -126 444 -344 457 l-77 5 -15 51 c-33 112 -154 364 -230 480 -68 101 -248 253 -410 346 -32 18 -80 51 -105 74 -264 234 -627 363 -886 314z m271 -383 c108 -30 222 -75 267 -107 18 -12 69 -54 114 -93 58 -50 118 -88 210 -135 112 -56 138 -74 208 -145 55 -54 92 -103 117 -150 46 -91 112 -244 106 -250 -2 -3 -66 -14 -142 -25 -116 -17 -187 -20 -459 -20 -318 0 -416 5 -797 36 -107 8 -345 18 -527 21 l-333 5 6 27 c47 213 140 326 363 442 84 43 125 73 208 151 260 245 427 307 659 243z m-46 -1245 c141 -12 642 -12 810 0 74 5 252 11 395 12 l260 3 13 -60 c19 -92 10 -694 -13 -795 -28 -126 -65 -231 -113 -325 -60 -117 -175 -235 -312 -318 -128 -78 -189 -95 -415 -118 -356 -34 -653 -43 -1095 -30 -517 14 -549 21 -740 151 -194 134 -291 285 -334 522 -27 147 -77 913 -61 938 8 13 129 23 405 30 327 9 1052 3 1200 -10z"/>
    <path d="M3785 5617 c-43 -24 -85 -78 -85 -109 0 -11 7 -35 16 -54 45 -95 186 -81 256 25 48 71 -16 161 -114 161 -18 0 -51 -10 -73 -23z"/>
    <path d="M4448 5400 c-53 -16 -97 -51 -117 -94 -25 -51 -26 -77 -5 -122 21 -43 60 -72 110 -79 50 -8 120 26 151 74 42 63 23 179 -34 209 -30 16 -76 21 -105 12z"/>
    <path d="M3960 5299 c-86 -35 -126 -141 -80 -216 38 -64 126 -81 207 -42 109 53 121 181 24 246 -37 25 -105 30 -151 12z"/>
    <path d="M2575 4326 c-64 -29 -70 -44 -70 -193 l0 -135 33 -29 c56 -50 129 -33 158 37 9 22 14 73 14 149 0 111 -1 116 -27 144 -34 37 -68 45 -108 27z"/>
    <path d="M2579 3747 c-103 -69 -88 -207 41 -379 90 -119 238 -219 384 -258 123 -34 199 -9 232 75 33 87 -7 139 -137 179 -154 47 -210 97 -291 260 -35 71 -61 109 -83 124 -42 29 -102 29 -146 -1z"/>
    <path d="M3015 2435 c-53 -21 -83 -51 -96 -97 -13 -51 11 -104 61 -133 33 -19 54 -20 300 -22 303 -2 822 -19 985 -33 233 -20 282 -21 345 -11 71 12 103 31 138 81 43 64 16 145 -64 186 -41 20 -60 21 -670 27 -346 4 -703 9 -794 12 -133 4 -173 2 -205 -10z"/>
  </g>
</svg>