<svg version="1.0" xmlns="http://www.w3.org/2000/svg" width="800.000000" height="800.000000" viewBox="0 0 800.000000 800.000000" preserveAspectRatio="xMidYMid meet">
  <metadata>
    <rdf:RDF xmlns:rdf="http://www.w3.org/1999/02/22-rdf-syntax-ns#" xmlns:rdfs="http://www.w3.org/2000/01/rdf-schema#" xmlns:dc="http://purl.org/dc/elements/1.1/">
      <rdf:Description dc:format="image/svg+xml" dc:Label="1" dc:ContentProducer="001191330110MACRLGPT8B00000" dc:ProduceID="374708646" dc:ReservedCode1="K+Li3OdrjMV8rfjhUjYNH4iCSjVmeye3RzAc8zc/f2A=" dc:ContentPropagator="001191330110MACRLGPT8B00000" dc:PropagateID="374708646" dc:ReservedCode2="K+Li3OdrjMV8rfjhUjYNH4iCSjVmeye3RzAc8zc/f2A="/>
    </rdf:RDF>
  </metadata>
  <g transform="translate(190.000000,623.307897) scale(0.053778,-0.053778)" fill="#000000" stroke="none">
    <path d="M3650 7513 c-220 -24 -472 -82 -860 -198 -237 -71 -381 -114 -730 -215 -404 -118 -699 -205 -880 -260 -107 -32 -316 -93 -465 -135 -154 -43 -300 -90 -340 -110 -146 -71 -283 -231 -350 -410 -23 -60 -25 -79 -25 -238 0 -158 2 -178 25 -240 68 -189 215 -342 431 -451 119 -59 262 -98 749 -201 154 -33 195 -43 410 -105 38 -11 191 -53 500 -136 132 -36 254 -69 270 -75 17 -5 73 -21 125 -35 141 -39 500 -147 710 -215 211 -68 336 -101 465 -123 312 -52 482 -28 1125 161 178 52 276 84 720 235 275 93 559 172 955 266 94 23 242 61 329 87 154 44 186 51 186 40 0 -3 -9 -22 -19 -43 -70 -138 -79 -269 -85 -1352 -4 -492 -11 -1064 -17 -1270 -10 -335 -10 -382 5 -443 30 -128 85 -195 192 -238 84 -33 250 -34 309 -2 57 30 82 61 106 129 23 64 23 81 3 701 -4 106 -1 376 6 600 15 486 15 1340 0 1595 -16 271 -42 349 -137 405 -24 14 -43 29 -43 33 0 5 29 18 63 29 92 31 208 111 270 186 108 131 157 278 157 475 0 200 -45 317 -170 440 -41 41 -101 90 -132 108 -135 80 -469 199 -758 272 -107 27 -294 79 -415 115 -234 70 -490 137 -695 181 -228 48 -393 92 -585 154 -380 124 -829 246 -1005 275 -87 14 -305 18 -400 8z m425 -317 c181 -28 514 -113 880 -225 189 -58 406 -114 625 -161 279 -60 475 -112 725 -190 33 -10 146 -44 250 -75 310 -92 452 -142 601 -215 165 -80 242 -143 289 -237 27 -52 30 -68 30 -158 0 -89 -3 -107 -28 -160 -54 -116 -168 -193 -372 -253 -55 -16 -179 -55 -275 -85 -96 -31 -242 -74 -325 -97 -477 -133 -635 -180 -860 -257 -831 -283 -1159 -377 -1496 -427 -229 -34 -451 -7 -827 100 -86 25 -272 77 -412 115 -397 110 -666 189 -1045 307 -416 131 -428 134 -757 212 -254 60 -374 96 -473 140 -129 58 -251 173 -307 288 -30 61 -33 75 -33 162 0 85 3 101 29 153 36 72 99 138 163 170 26 14 116 44 198 67 83 23 204 58 270 78 66 19 156 45 200 57 44 13 114 34 155 48 142 48 547 168 870 257 182 50 504 143 795 228 283 83 560 144 755 165 86 9 293 5 375 -7z m3168 -2155 c42 -71 48 -142 59 -746 9 -467 9 -655 -2 -965 -8 -212 -15 -590 -15 -840 -1 -340 -5 -461 -14 -479 -14 -26 -83 -60 -123 -61 -36 0 -73 41 -87 96 -21 84 -14 967 13 1514 14 272 27 668 30 880 3 214 11 412 17 445 6 33 24 88 39 122 33 71 55 81 83 34z"/>
    <path d="M1330 4841 c-84 -27 -113 -45 -168 -106 -90 -98 -121 -223 -122 -490 0 -93 4 -217 10 -275 12 -135 27 -474 40 -910 17 -565 28 -659 103 -845 54 -136 130 -247 247 -365 193 -194 389 -292 690 -346 114 -20 345 -23 475 -6 245 33 1210 34 2441 3 463 -12 602 -2 801 59 172 53 351 158 465 272 79 80 124 146 178 261 51 108 77 209 91 351 14 139 13 542 0 701 -6 66 -11 188 -11 270 0 83 -7 242 -16 355 -8 113 -19 331 -23 485 -9 313 -15 345 -80 431 -26 35 -56 59 -105 84 -63 32 -74 34 -154 33 -138 -1 -298 -44 -637 -170 -626 -233 -1133 -402 -1313 -439 -199 -40 -246 -38 -527 30 -236 57 -417 109 -585 168 -47 16 -191 60 -320 98 -129 38 -329 98 -445 133 -691 213 -786 237 -912 236 -37 0 -93 -8 -123 -18z m234 -322 c50 -11 206 -54 346 -94 309 -89 790 -217 920 -246 117 -25 394 -101 515 -140 131 -43 289 -86 450 -121 274 -60 453 -39 940 112 105 32 237 72 295 90 164 49 392 127 529 182 154 62 288 108 314 108 16 0 18 -5 13 -32 -11 -63 -19 -245 -12 -282 10 -50 37 -76 82 -76 32 0 37 4 54 43 16 35 21 79 26 226 l7 183 26 10 c42 16 79 21 105 14 35 -9 55 -77 66 -231 6 -71 12 -146 15 -165 37 -246 50 -677 37 -1180 -10 -340 -12 -372 -35 -462 -69 -264 -181 -417 -387 -526 -84 -45 -141 -64 -248 -87 -178 -37 -276 -39 -1645 -40 l-1338 0 7 40 c4 22 6 89 6 150 -2 149 -23 194 -66 146 -22 -25 -56 -188 -56 -273 l0 -68 -39 0 c-76 0 -267 30 -381 60 -277 73 -449 208 -574 450 -109 212 -137 401 -156 1050 -6 206 -16 447 -22 535 -24 328 -10 549 38 622 18 29 49 29 168 2z"/>
    <path d="M7063 1717 c-217 -84 -356 -348 -298 -570 32 -122 95 -211 198 -278 247 -160 565 -80 690 174 164 336 -46 674 -432 693 -84 4 -104 1 -158 -19z m273 -263 c120 -59 159 -178 95 -289 -80 -140 -272 -165 -394 -51 -73 68 -74 189 -2 298 56 84 180 101 301 42z"/>
  </g>
</svg>