<svg version="1.0" xmlns="http://www.w3.org/2000/svg" width="800.000000" height="800.000000" viewBox="0 0 800.000000 800.000000" preserveAspectRatio="xMidYMid meet">
  <metadata>
    <rdf:RDF xmlns:rdf="http://www.w3.org/1999/02/22-rdf-syntax-ns#" xmlns:rdfs="http://www.w3.org/2000/01/rdf-schema#" xmlns:dc="http://purl.org/dc/elements/1.1/">
      <rdf:Description dc:format="image/svg+xml" dc:Label="1" dc:ContentProducer="001191330110MACRLGPT8B00000" dc:ProduceID="374710256" dc:ReservedCode1="cq9e5wlj+/oXbm/xuqO8xrcLHYlqby1RNqJnPbyOOXA=" dc:ContentPropagator="001191330110MACRLGPT8B00000" dc:PropagateID="374710256" dc:ReservedCode2="cq9e5wlj+/oXbm/xuqO8xrcLHYlqby1RNqJnPbyOOXA="/>
    </rdf:RDF>
  </metadata>
  <g transform="translate(188.474146,628.199746) scale(0.054902,-0.054902)" fill="#000000" stroke="none">
    <path d="M4043 7110 c-136 -68 -290 -236 -352 -384 -52 -126 -72 -218 -78 -361 -8 -206 21 -301 122 -393 63 -57 108 -75 158 -61 67 18 93 84 132 334 15 94 39 206 53 250 25 76 31 85 118 170 121 118 125 126 132 235 6 113 -8 170 -55 210 -30 27 -40 30 -102 30 -55 0 -79 -5 -128 -30z"/>
    <path d="M3725 5460 c-33 -4 -362 -8 -731 -9 -734 -1 -975 -14 -1224 -65 -292 -61 -631 -211 -910 -405 -269 -186 -492 -497 -657 -913 -148 -377 -175 -496 -175 -783 0 -298 46 -534 162 -826 117 -293 242 -483 451 -684 385 -370 856 -541 1649 -596 179 -12 1891 -5 2800 11 815 15 979 39 1300 192 219 104 407 234 621 431 280 257 374 402 533 829 80 213 111 340 127 513 24 268 -12 494 -128 810 -93 253 -163 400 -258 540 -265 391 -633 696 -970 804 -199 64 -530 121 -815 141 -189 13 -1691 22 -1775 10z m1385 -400 c524 -14 820 -56 1107 -158 277 -98 621 -433 787 -767 51 -102 109 -260 170 -465 39 -131 59 -263 60 -400 1 -136 2 -133 -90 -430 -60 -192 -126 -361 -172 -437 -96 -160 -363 -416 -578 -555 -104 -67 -280 -139 -425 -173 -113 -26 -397 -48 -1099 -85 -113 -6 -540 -13 -950 -16 -410 -3 -828 -6 -930 -7 -165 -2 -304 6 -780 44 -599 47 -971 183 -1267 462 -163 155 -279 344 -373 612 -66 187 -120 464 -120 616 0 200 91 533 220 805 69 146 125 233 228 355 189 224 510 411 844 493 63 16 312 50 443 61 194 16 480 27 970 36 297 6 617 14 710 18 186 9 691 5 1245 -9z"/>
    <path d="M2120 4388 c-53 -37 -87 -110 -121 -264 -50 -225 -70 -351 -76 -480 l-6 -121 -226 -12 c-274 -14 -366 -26 -416 -55 -55 -31 -78 -66 -83 -131 -4 -53 -3 -56 35 -94 22 -23 55 -44 78 -50 38 -10 209 -23 487 -37 l127 -6 -1 -231 c-3 -419 39 -599 152 -657 90 -46 190 -8 240 90 32 64 40 136 40 382 0 134 5 279 12 324 l12 82 115 7 c247 13 419 26 496 37 182 25 285 119 242 220 -49 113 -191 150 -490 129 -89 -6 -204 -11 -254 -11 l-91 0 -6 98 c-27 413 -52 662 -73 713 -34 85 -122 115 -193 67z"/>
    <path d="M4695 3919 c-145 -20 -336 -108 -428 -197 -99 -95 -190 -264 -233 -430 -23 -85 -25 -112 -21 -217 8 -197 59 -315 154 -357 40 -18 51 -19 85 -9 50 15 107 67 172 156 98 133 100 141 66 216 -25 55 -26 146 -2 215 59 169 179 238 285 163 33 -23 59 -32 104 -36 80 -7 130 18 234 115 121 114 134 174 55 255 -101 105 -281 153 -471 126z"/>
    <path d="M5950 3874 c-36 -7 -97 -30 -137 -49 -162 -80 -301 -296 -354 -550 -44 -214 -6 -441 87 -514 48 -38 95 -46 155 -26 44 14 69 33 133 98 82 84 136 159 136 188 0 9 -16 46 -35 83 -29 57 -35 77 -34 129 1 73 13 110 56 171 39 54 70 76 121 83 34 5 41 2 64 -30 78 -101 240 -86 335 31 21 26 64 75 95 109 65 70 73 104 38 153 -39 54 -87 74 -315 126 -76 17 -261 17 -345 -2z"/>
  </g>
</svg>