<svg version="1.0" xmlns="http://www.w3.org/2000/svg" width="800.000000" height="800.000000" viewBox="0 0 800.000000 800.000000" preserveAspectRatio="xMidYMid meet">
  <metadata>
    <rdf:RDF xmlns:rdf="http://www.w3.org/1999/02/22-rdf-syntax-ns#" xmlns:rdfs="http://www.w3.org/2000/01/rdf-schema#" xmlns:dc="http://purl.org/dc/elements/1.1/">
      <rdf:Description dc:format="image/svg+xml" dc:Label="1" dc:ContentProducer="001191330110MACRLGPT8B00000" dc:ProduceID="374706288" dc:ReservedCode1="tWSpnc+47MyOaeU0Hnc1zHAY/Nm8935mgF2cnpcBBnE=" dc:ContentPropagator="001191330110MACRLGPT8B00000" dc:PropagateID="374706288" dc:ReservedCode2="tWSpnc+47MyOaeU0Hnc1zHAY/Nm8935mgF2cnpcBBnE="/>
    </rdf:RDF>
  </metadata>
  <g transform="translate(14.680334,813.884307) scale(0.099444,-0.099444)" fill="#000000" stroke="none">
    <path d="M3752 5979 c-34 -5 -180 -44 -325 -85 -144 -42 -356 -102 -472 -134 -115 -32 -264 -75 -330 -95 -66 -20 -169 -52 -230 -70 -493 -147 -547 -174 -589 -293 -41 -114 -53 -551 -35 -1192 8 -256 14 -600 14 -765 0 -335 0 -335 71 -394 39 -32 173 -83 334 -126 52 -15 291 -91 530 -170 239 -79 507 -165 595 -190 88 -26 219 -66 290 -88 120 -38 139 -41 240 -40 94 0 125 5 215 32 58 17 200 59 315 92 518 148 770 224 1210 365 301 97 363 157 385 366 24 245 22 676 -9 1794 -7 269 -9 282 -33 335 -30 66 -86 122 -153 154 -94 44 -306 101 -635 171 -276 58 -537 129 -870 234 -351 111 -391 119 -518 99z m359 -355 c356 -110 634 -187 804 -223 326 -69 434 -95 429 -103 -3 -4 -11 -8 -18 -8 -6 0 -153 -45 -325 -100 -173 -56 -316 -98 -319 -95 -3 3 0 5 6 5 21 0 13 49 -10 64 -38 25 -263 99 -728 241 -292 88 -534 167 -544 175 -15 14 348 118 415 119 31 1 126 -24 290 -75z m-760 -140 c79 -25 207 -65 284 -89 77 -24 172 -55 210 -69 61 -21 448 -140 690 -212 44 -13 94 -24 110 -25 24 0 15 -6 -40 -25 -78 -28 -83 -27 -175 12 -76 32 -901 308 -1132 379 -87 27 -158 52 -158 56 0 4 12 10 28 12 15 2 30 5 33 6 3 0 70 -20 150 -45z m-465 -83 c61 -20 229 -72 457 -142 265 -81 851 -278 878 -295 14 -8 -178 -71 -258 -84 -136 -22 -529 54 -903 175 -135 44 -443 135 -617 183 -51 14 -93 28 -93 33 0 4 15 12 33 18 17 5 100 31 182 56 83 26 168 53 190 60 54 18 63 18 131 -4z m-397 -421 c229 -77 522 -175 651 -219 211 -72 383 -115 610 -155 l36 -6 -3 -318 c-2 -189 -11 -436 -24 -612 -23 -323 -38 -669 -38 -882 -1 -75 -5 -139 -10 -142 -5 -3 -71 14 -147 38 -77 24 -278 83 -449 131 -405 113 -985 283 -1045 306 l-26 10 -12 437 c-7 240 -20 547 -29 682 -9 135 -17 358 -17 495 -1 224 1 256 19 305 24 68 34 82 53 75 8 -3 201 -68 431 -145z m3195 8 c3 -62 11 -167 16 -233 16 -205 4 -1416 -16 -1537 -7 -45 -23 -53 -299 -138 -110 -34 -288 -90 -395 -125 -229 -75 -304 -97 -707 -210 -166 -47 -309 -85 -319 -85 -15 0 -16 26 -11 338 3 185 13 504 22 707 15 324 17 823 4 875 -3 11 10 16 51 21 72 8 114 20 303 85 88 30 162 54 165 54 4 0 7 -95 7 -211 0 -209 0 -211 24 -230 28 -23 41 -24 67 -5 17 13 19 28 19 178 0 90 -2 192 -5 227 l-5 64 180 58 c99 32 185 59 191 59 9 0 9 -12 2 -42 -13 -58 -5 -356 11 -385 25 -47 94 -37 108 15 10 34 10 150 1 317 l-8 130 278 92 c152 50 284 91 293 92 13 1 17 -17 23 -111z"/>
    <path d="M2260 4932 c-23 -11 -43 -32 -57 -62 -22 -43 -23 -59 -27 -350 -5 -317 -1 -360 36 -413 29 -41 76 -67 265 -150 197 -86 231 -98 380 -132 163 -37 227 -32 281 18 68 63 85 171 74 468 -8 202 -8 208 -35 248 -54 82 -208 169 -392 221 -60 17 -138 47 -172 66 -89 49 -236 104 -280 104 -21 0 -54 -8 -73 -18z m139 -231 c11 -7 10 -13 -3 -33 -9 -14 -20 -52 -25 -84 l-9 -59 -1 93 c-1 94 4 104 38 83z m162 -69 c53 -22 152 -59 220 -82 132 -45 179 -66 191 -84 9 -13 10 -346 2 -398 -4 -25 -12 -38 -22 -38 -8 0 -72 24 -141 54 -69 29 -157 64 -194 77 -66 22 -68 24 -40 33 15 5 31 13 34 19 4 6 16 3 30 -7 27 -18 62 -21 89 -6 15 8 20 6 25 -11 11 -33 49 -45 80 -25 29 19 33 56 10 96 -21 36 -18 47 15 66 57 34 65 115 13 135 -33 12 -57 4 -82 -27 -25 -31 -32 -30 -54 7 -26 47 -42 34 -61 -51 -3 -14 -17 -38 -30 -53 -14 -16 -27 -34 -28 -39 -3 -7 -16 -4 -35 6 -18 9 -38 16 -46 16 -8 0 -25 9 -38 20 l-24 19 54 1 c62 0 91 19 91 59 0 15 -7 37 -16 49 -13 19 -14 28 -5 51 20 48 1 75 -83 117 -42 20 -76 39 -76 42 0 2 6 2 13 -1 6 -3 55 -23 108 -45z"/>
    <path d="M4565 3618 c-82 -21 -211 -59 -286 -84 -148 -48 -183 -72 -193 -134 -8 -44 9 -78 52 -103 30 -18 41 -19 97 -9 58 10 294 72 481 128 101 30 144 65 144 117 0 53 -16 85 -52 107 -44 27 -68 25 -243 -22z"/>
    <path d="M4476 3238 c-22 -5 -58 -15 -80 -23 -23 -7 -88 -30 -145 -50 -161 -56 -187 -74 -198 -139 -7 -43 13 -78 59 -102 29 -15 36 -15 102 1 111 27 327 104 368 130 47 31 60 81 33 130 -26 50 -73 67 -139 53z"/>
  </g>
</svg>