<svg version="1.0" xmlns="http://www.w3.org/2000/svg" width="800.000000" height="800.000000" viewBox="0 0 800.000000 800.000000" preserveAspectRatio="xMidYMid meet">
  <metadata>
    <rdf:RDF xmlns:rdf="http://www.w3.org/1999/02/22-rdf-syntax-ns#" xmlns:rdfs="http://www.w3.org/2000/01/rdf-schema#" xmlns:dc="http://purl.org/dc/elements/1.1/">
      <rdf:Description dc:format="image/svg+xml" dc:Label="1" dc:ContentProducer="001191330110MACRLGPT8B00000" dc:ProduceID="374708472" dc:ReservedCode1="eDDfcVNkw3XDsDv+sKpz3KtBrtna4UT5CqHZB6zCTkI=" dc:ContentPropagator="001191330110MACRLGPT8B00000" dc:PropagateID="374708472" dc:ReservedCode2="eDDfcVNkw3XDsDv+sKpz3KtBrtna4UT5CqHZB6zCTkI="/>
    </rdf:RDF>
  </metadata>
  <g transform="translate(184.443443,623.520598) scale(0.055062,-0.055062)" fill="#000000" stroke="none">
    <path d="M3739 7757 c-125 -45 -235 -141 -434 -378 -133 -158 -729 -784 -1055 -1109 -177 -176 -425 -434 -630 -655 -101 -110 -275 -294 -385 -410 -111 -115 -234 -246 -275 -290 -41 -44 -181 -193 -311 -330 -392 -414 -479 -525 -524 -668 -29 -90 -31 -158 -10 -241 25 -96 65 -167 135 -237 115 -115 214 -144 465 -136 88 3 204 11 258 17 54 7 100 10 102 8 7 -6 -13 -1126 -25 -1468 -6 -162 -17 -412 -25 -555 -20 -342 -20 -520 1 -604 49 -200 166 -324 330 -351 32 -6 111 -10 174 -10 179 0 741 36 1028 65 274 28 530 37 1102 39 555 1 700 -4 980 -35 47 -5 315 -13 595 -19 281 -5 600 -17 710 -25 346 -28 468 3 609 155 64 69 100 140 116 230 16 85 5 901 -16 1225 -19 295 -35 709 -41 1046 -4 252 -3 266 16 290 33 43 82 51 491 79 387 27 462 59 543 231 57 122 70 173 65 250 -8 104 -51 184 -157 290 -93 92 -387 356 -596 534 -166 141 -405 365 -488 457 -36 39 -86 106 -111 148 l-46 75 -5 150 c-4 106 -14 193 -34 295 -16 80 -32 188 -36 240 -31 441 -113 611 -295 614 -68 1 -110 -16 -140 -56 -26 -36 -49 -129 -50 -204 0 -50 -33 -320 -70 -569 -31 -213 -35 -322 -16 -407 43 -191 197 -400 576 -778 184 -185 304 -292 590 -532 96 -81 199 -171 228 -201 l53 -54 -338 -6 c-292 -5 -348 -9 -415 -26 -139 -36 -189 -75 -250 -194 -37 -73 -37 -60 -20 -482 6 -165 16 -502 22 -750 5 -247 15 -504 22 -570 14 -137 17 -772 5 -885 -5 -42 -12 -83 -17 -90 -13 -20 -428 -26 -675 -10 -99 7 -292 14 -430 17 l-250 5 0 866 0 867 -31 66 c-52 108 -186 223 -324 277 -185 72 -318 87 -775 87 -349 0 -362 -1 -430 -23 -124 -41 -198 -113 -246 -241 -35 -95 -42 -165 -43 -461 -1 -231 2 -300 16 -365 17 -80 22 -218 33 -821 l4 -251 -182 -6 c-100 -4 -225 -11 -277 -18 -71 -8 -148 -8 -305 1 -115 7 -310 12 -432 11 -122 -1 -223 2 -226 6 -11 18 -46 296 -52 409 -10 179 -8 484 5 699 6 105 15 397 21 650 5 253 13 570 18 705 9 268 4 314 -42 393 -32 54 -91 107 -156 139 -41 20 -60 23 -171 23 -80 0 -170 -8 -250 -22 -188 -32 -293 -46 -312 -42 -13 3 28 53 158 189 97 102 255 282 353 399 234 285 404 472 821 906 59 61 183 191 277 290 93 99 332 344 530 545 197 201 488 502 644 670 320 342 411 430 445 430 49 0 113 -66 345 -350 56 -69 144 -174 195 -235 51 -60 133 -162 181 -226 48 -64 107 -133 130 -152 118 -98 299 -93 407 11 53 51 76 109 76 190 0 111 -32 156 -285 393 -38 37 -189 189 -335 339 -320 331 -479 478 -558 516 -81 39 -182 44 -273 11z m261 -5203 c91 -9 187 -23 214 -31 64 -19 114 -60 126 -103 22 -78 1 -766 -29 -970 -24 -159 -34 -318 -28 -457 l7 -146 -78 6 c-42 4 -210 9 -372 12 -162 3 -328 8 -369 11 l-74 6 7 696 c4 384 12 732 16 775 10 88 41 167 65 167 8 0 32 8 53 17 20 9 46 20 57 24 37 13 238 10 405 -7z"/>
  </g>
</svg>