<svg version="1.0" xmlns="http://www.w3.org/2000/svg" width="800.000000" height="800.000000" viewBox="0 0 800.000000 800.000000" preserveAspectRatio="xMidYMid meet">
  <metadata>
    <rdf:RDF xmlns:rdf="http://www.w3.org/1999/02/22-rdf-syntax-ns#" xmlns:rdfs="http://www.w3.org/2000/01/rdf-schema#" xmlns:dc="http://purl.org/dc/elements/1.1/">
      <rdf:Description dc:format="image/svg+xml" dc:Label="1" dc:ContentProducer="001191330110MACRLGPT8B00000" dc:ProduceID="374709135" dc:ReservedCode1="Blb4V0REbeLlO5I6jgvHAhdZRCCzVE579B4dQaWT9vY=" dc:ContentPropagator="001191330110MACRLGPT8B00000" dc:PropagateID="374709135" dc:ReservedCode2="Blb4V0REbeLlO5I6jgvHAhdZRCCzVE579B4dQaWT9vY="/>
    </rdf:RDF>
  </metadata>
  <g transform="translate(191.613596,621.666027) scale(0.053958,-0.053958)" fill="#000000" stroke="none">
    <path d="M4347 7888 c-47 -63 -204 -237 -354 -393 -148 -154 -275 -295 -282 -312 -19 -46 -6 -100 33 -139 51 -51 115 -60 310 -46 88 7 187 12 219 12 l59 0 -7 -32 c-10 -45 -62 -201 -92 -273 -79 -194 -309 -640 -425 -825 -243 -388 -496 -673 -786 -888 -129 -95 -474 -304 -702 -425 -282 -149 -653 -270 -1200 -392 -372 -82 -610 -164 -610 -210 0 -35 151 -88 305 -106 307 -36 845 73 1369 277 320 126 845 413 1106 607 105 78 283 232 345 299 264 284 444 541 653 934 212 398 327 690 396 1007 l6 27 168 0 c243 1 324 22 359 94 24 52 10 93 -76 224 -177 267 -395 574 -460 645 -24 26 -27 27 -137 27 l-112 0 -85 -112z m322 -407 c72 -101 131 -187 131 -191 0 -5 -60 -11 -132 -14 -73 -3 -211 -9 -306 -13 -95 -5 -177 -7 -182 -5 -5 2 32 47 84 100 106 109 210 231 239 280 11 18 23 32 27 30 5 -2 67 -86 139 -187z"/>
    <path d="M5085 6220 c-263 -8 -321 -17 -388 -60 -91 -58 -115 -157 -119 -500 -5 -321 12 -1679 22 -1840 11 -161 21 -326 45 -690 11 -165 15 -326 12 -495 l-4 -250 -37 -105 c-48 -135 -103 -351 -117 -460 -26 -190 3 -488 66 -695 14 -46 25 -87 25 -93 0 -6 -107 -10 -281 -10 -154 0 -369 -6 -477 -12 -380 -23 -2156 -15 -2762 12 -151 7 -347 12 -435 12 -142 0 -165 -2 -208 -22 -67 -30 -90 -83 -85 -193 4 -90 20 -120 84 -153 39 -21 47 -21 1014 -20 1075 1 2274 11 2360 19 30 3 246 10 480 15 234 6 445 15 469 20 l45 11 65 -64 c109 -105 239 -192 421 -279 228 -110 416 -152 680 -152 149 0 194 4 305 27 159 33 218 53 360 122 205 101 427 294 548 477 122 184 207 401 247 632 32 179 25 411 -15 566 -125 482 -482 852 -970 1010 -131 42 -238 59 -413 67 -78 3 -149 11 -158 17 -21 16 -30 553 -27 1606 2 683 5 836 19 945 10 78 15 169 12 230 -4 88 -8 108 -34 155 -34 64 -94 113 -167 136 -64 20 -248 25 -582 14z m468 -341 c19 -30 -8 -85 -232 -464 -213 -360 -263 -448 -362 -633 -39 -73 -74 -131 -77 -127 -3 3 -9 76 -13 163 -4 86 -11 225 -15 308 l-7 151 57 38 c67 44 80 64 66 99 -12 33 -49 42 -88 22 l-31 -16 -5 32 c-3 18 -8 108 -11 200 -6 159 -5 168 15 188 15 15 33 20 73 20 50 0 75 -5 164 -31 38 -12 56 -9 195 24 213 51 253 55 271 26z m8 -642 c-7 -106 -14 -247 -18 -314 l-6 -122 -45 -48 c-46 -50 -228 -302 -349 -483 -82 -123 -131 -205 -189 -314 l-41 -78 -6 43 c-4 24 -9 107 -13 184 l-6 140 74 135 c41 74 94 171 118 215 51 94 319 565 330 580 8 11 79 144 126 235 19 39 29 50 32 37 2 -10 -1 -105 -7 -210z m-17 -924 c-3 -170 -9 -312 -12 -318 -3 -5 -8 -201 -11 -435 l-6 -425 -22 -3 c-26 -4 -31 -27 -8 -36 21 -8 19 -37 -3 -43 -10 -2 -61 -22 -113 -42 -52 -21 -96 -37 -97 -35 -2 1 9 22 25 46 67 99 134 229 152 294 13 46 0 74 -34 74 -77 0 -431 -407 -475 -548 -24 -74 -30 -55 -30 92 l0 147 53 67 c30 37 92 121 139 187 385 543 443 648 348 635 -25 -3 -97 -78 -219 -230 -123 -152 -236 -305 -278 -377 -14 -24 -29 -43 -34 -43 -5 0 -9 53 -9 118 l0 118 98 164 c55 91 132 219 172 285 133 218 299 502 327 559 15 31 31 56 35 56 5 0 6 -138 2 -307z m686 -1602 c189 -42 328 -98 452 -182 66 -45 138 -107 138 -118 0 -4 -30 -43 -66 -87 -36 -43 -110 -138 -165 -210 -163 -217 -180 -274 -83 -274 25 0 58 7 74 15 42 22 179 181 263 307 40 59 75 107 79 108 20 1 91 -168 119 -283 29 -117 31 -325 5 -462 -22 -115 -71 -296 -98 -360 -77 -184 -308 -419 -503 -511 -49 -23 -135 -55 -190 -70 -91 -25 -116 -28 -280 -28 -156 -1 -192 2 -270 22 -361 91 -636 283 -759 529 -28 57 -76 212 -76 248 0 14 27 54 68 102 192 226 476 577 508 630 9 15 25 -10 102 -162 50 -99 88 -183 86 -187 -3 -5 -33 -8 -66 -8 -84 0 -108 -22 -108 -96 0 -61 13 -79 68 -93 32 -8 209 -31 242 -31 7 0 10 -16 8 -42 l-3 -43 -125 -6 c-69 -4 -137 -12 -151 -17 -37 -15 -59 -50 -59 -93 0 -78 55 -106 235 -118 l90 -6 5 -147 c5 -138 6 -148 29 -172 61 -65 235 -60 274 8 7 12 14 76 17 146 l5 125 121 6 c141 6 176 18 198 64 44 91 -2 176 -103 195 -29 6 -89 10 -132 10 l-79 0 0 34 0 33 155 5 c198 7 219 18 232 127 5 43 3 51 -25 82 -30 34 -32 34 -126 37 -56 2 -96 8 -96 14 0 6 13 29 28 52 55 80 184 316 213 387 16 39 32 88 35 109 5 33 2 42 -28 75 -29 32 -42 38 -84 42 -63 6 -94 -9 -155 -74 -51 -55 -183 -271 -266 -437 l-56 -110 -22 49 c-108 241 -234 460 -305 527 -61 59 -110 62 -169 12 -37 -31 -47 -76 -31 -141 l12 -48 -107 -110 c-114 -118 -298 -338 -394 -472 -32 -45 -61 -79 -65 -76 -12 12 -6 239 9 331 23 142 52 237 108 352 45 94 60 115 146 200 87 86 108 101 221 157 182 91 252 115 435 149 104 19 346 12 465 -15z"/>
    <path d="M5215 5780 c-11 -4 -39 -25 -63 -45 -69 -60 -92 -125 -43 -125 21 0 126 108 136 141 9 27 -4 39 -30 29z"/>
    <path d="M5818 2318 c-65 -69 -75 -130 -26 -158 36 -20 55 -8 90 56 58 105 10 182 -64 102z"/>
    <path d="M6985 1721 c-87 -53 -628 -674 -687 -787 -31 -60 -31 -62 -15 -88 36 -55 115 -20 241 106 221 222 433 513 502 690 37 93 23 119 -41 79z"/>
    <path d="M5105 1298 c-74 -68 -125 -139 -125 -174 0 -27 25 -54 49 -54 29 0 96 66 156 154 65 96 70 129 19 134 -25 2 -41 -7 -99 -60z"/>
    <path d="M5472 1128 c-90 -72 -210 -246 -195 -284 12 -31 49 -13 115 54 110 113 168 191 168 229 0 28 -4 33 -24 33 -13 0 -42 -15 -64 -32z"/>
    <path d="M3646 4510 c-209 -13 -315 -28 -364 -53 -61 -30 -111 -82 -141 -146 l-26 -56 0 -350 c1 -192 6 -500 13 -684 7 -184 12 -621 12 -970 0 -638 7 -815 36 -903 23 -70 68 -127 120 -150 43 -19 63 -19 462 -16 466 5 476 6 548 75 89 88 109 191 100 523 -4 129 -11 381 -16 560 -15 546 -12 1031 7 1277 21 259 24 599 5 660 -30 100 -117 184 -225 219 -62 20 -315 27 -531 14z m438 -353 c24 -17 19 -25 -89 -171 -126 -170 -297 -436 -470 -731 -49 -82 -94 -156 -100 -163 -10 -11 -14 32 -19 200 -4 117 -11 263 -16 323 -5 61 -12 204 -16 318 l-7 208 152 -3 c83 -2 151 -4 151 -5 0 -1 -25 -40 -57 -85 -102 -150 -135 -245 -97 -282 44 -45 93 9 221 244 14 25 39 66 56 92 31 46 32 47 102 56 105 14 169 14 189 -1z m15 -489 c-4 -134 -10 -408 -14 -610 l-8 -368 -36 0 c-29 0 -42 -8 -79 -47 -66 -72 -307 -415 -407 -579 -76 -124 -90 -142 -97 -124 -4 12 -12 213 -18 446 l-9 424 48 72 c95 145 536 879 582 971 16 31 33 57 37 57 4 0 4 -109 1 -242z m-23 -1320 c-3 -112 -9 -352 -13 -535 l-6 -331 -144 -7 c-79 -4 -147 -5 -150 -1 -4 3 9 23 29 44 76 79 229 333 231 384 2 30 -1 33 -30 36 -30 3 -37 -5 -180 -195 -81 -109 -161 -219 -178 -245 -29 -47 -31 -47 -82 -48 -56 0 -56 0 -68 70 -6 32 1 46 56 130 34 52 103 163 154 245 51 83 117 189 147 236 29 47 92 160 138 252 47 92 89 167 94 167 5 0 6 -84 2 -202z"/>
    <path d="M1931 3729 c-74 -11 -113 -29 -159 -72 -65 -62 -93 -236 -74 -457 10 -110 9 -217 -14 -1330 -7 -368 -1 -448 42 -537 25 -51 70 -95 129 -123 40 -20 879 -28 947 -10 55 15 101 67 129 144 19 53 22 89 26 282 8 330 -21 1117 -53 1459 -11 118 -14 209 -9 297 6 107 4 136 -10 179 -22 67 -77 120 -151 150 -57 22 -70 23 -399 25 -187 1 -369 -2 -404 -7z m351 -295 l37 -6 -43 -57 c-89 -116 -166 -245 -166 -278 0 -31 21 -53 49 -53 25 0 80 65 183 217 69 102 121 169 136 174 32 12 119 11 143 -1 32 -18 22 -48 -40 -123 -80 -97 -472 -693 -577 -875 l-42 -73 -6 63 c-3 35 -11 176 -16 313 -6 138 -15 302 -20 365 -5 63 -10 158 -10 211 0 100 4 112 45 122 30 7 284 8 327 1z m415 -318 c-4 -67 -13 -193 -21 -281 -9 -89 -15 -269 -16 -407 0 -222 -26 -927 -34 -935 -6 -6 -556 -15 -556 -9 0 3 100 158 223 344 312 472 334 511 308 561 -8 15 -21 21 -43 21 -27 0 -46 -15 -122 -93 -99 -101 -233 -272 -344 -439 -39 -58 -75 -109 -80 -112 -5 -3 -14 62 -22 144 l-13 148 73 129 c84 148 436 735 520 868 31 50 69 113 85 142 15 29 32 50 38 46 6 -3 7 -51 4 -127z"/>
    <path d="M795 2940 c-216 -9 -302 -24 -343 -63 -65 -60 -105 -195 -131 -441 -35 -324 -44 -515 -32 -676 27 -344 43 -420 99 -472 62 -59 72 -61 399 -69 376 -11 543 -2 604 32 57 32 104 96 118 159 15 69 15 1150 0 1257 -6 43 -20 99 -31 125 -25 58 -92 122 -144 139 -50 15 -283 19 -539 9z m117 -296 c4 -3 -35 -59 -85 -124 -51 -65 -114 -155 -141 -200 -43 -70 -48 -85 -40 -108 14 -40 66 -43 106 -5 26 24 176 243 263 385 34 54 54 62 131 52 81 -10 86 -24 28 -90 -87 -100 -342 -448 -505 -689 -39 -58 -55 -74 -56 -60 -10 83 -44 549 -49 673 -6 127 -5 156 7 163 15 9 332 13 341 3z m333 -534 c-24 -201 -33 -310 -41 -461 l-6 -136 -270 -7 c-148 -4 -272 -5 -275 -2 -3 3 28 56 69 118 41 62 87 133 102 158 15 25 50 81 78 125 28 44 111 181 185 305 74 124 142 236 151 250 16 24 17 21 20 -95 2 -67 -4 -180 -13 -255z"/>
    <path d="M1068 1852 c-55 -59 -128 -182 -128 -216 0 -28 32 -51 54 -39 16 9 100 104 139 156 35 46 51 101 37 127 -18 34 -53 25 -102 -28z"/>
  </g>
</svg>