<svg version="1.0" xmlns="http://www.w3.org/2000/svg" width="800.000000" height="800.000000" viewBox="0 0 800.000000 800.000000" preserveAspectRatio="xMidYMid meet">
  <metadata>
    <rdf:RDF xmlns:rdf="http://www.w3.org/1999/02/22-rdf-syntax-ns#" xmlns:rdfs="http://www.w3.org/2000/01/rdf-schema#" xmlns:dc="http://purl.org/dc/elements/1.1/">
      <rdf:Description dc:format="image/svg+xml" dc:Label="1" dc:ContentProducer="001191330110MACRLGPT8B00000" dc:ProduceID="374708647" dc:ReservedCode1="h48nNLZvyzMDU/m9RTtXzAwAzaiCA5WoSPZB/+tbwi0=" dc:ContentPropagator="001191330110MACRLGPT8B00000" dc:PropagateID="374708647" dc:ReservedCode2="h48nNLZvyzMDU/m9RTtXzAwAzaiCA5WoSPZB/+tbwi0="/>
    </rdf:RDF>
  </metadata>
  <g transform="translate(190.238264,628.930994) scale(0.054871,-0.054871)" fill="#000000" stroke="none">
    <path d="M1137 7984 c-103 -19 -218 -58 -287 -97 -81 -45 -189 -158 -233 -243 -77 -150 -134 -363 -163 -614 -19 -170 -18 -289 7 -616 19 -254 20 -331 15 -864 -3 -322 -10 -670 -15 -775 -37 -730 -40 -2049 -6 -2445 14 -166 16 -272 10 -710 -7 -572 -4 -608 56 -775 53 -145 160 -283 289 -373 116 -81 321 -125 590 -126 296 -2 1485 -1 1857 1 381 2 433 8 520 59 70 40 97 85 101 165 4 60 1 77 -23 125 -19 38 -42 66 -72 88 -112 79 -205 84 -485 25 -222 -46 -366 -58 -713 -59 -200 0 -416 14 -631 40 -179 22 -299 31 -514 39 -278 10 -333 23 -401 91 -79 79 -119 244 -119 489 0 80 -9 334 -19 565 -39 835 -44 1055 -35 1431 4 198 7 502 5 675 -1 176 5 492 14 715 10 220 21 740 25 1155 13 1112 27 1265 130 1415 42 61 94 83 236 100 66 8 169 21 229 29 144 20 413 43 650 56 105 6 259 15 344 20 85 5 170 8 190 5 20 -3 234 -17 476 -31 385 -23 480 -25 760 -20 176 4 349 11 385 16 118 17 598 24 737 11 165 -16 353 -45 451 -72 223 -59 235 -89 258 -659 13 -318 14 -531 6 -1411 -6 -619 -6 -1055 -1 -1084 21 -112 105 -185 213 -185 48 0 60 4 91 32 44 38 69 85 84 158 20 95 33 777 35 1845 1 1123 3 1083 -56 1265 -29 89 -110 247 -150 291 -86 95 -228 175 -381 214 -218 55 -686 71 -1070 36 -319 -30 -1219 -34 -1462 -7 -150 17 -271 19 -1010 22 -701 2 -853 1 -918 -12z"/>
    <path d="M1884 6421 c-147 -24 -214 -83 -214 -188 0 -56 23 -99 72 -136 71 -55 33 -53 1503 -52 l1361 1 57 28 c74 36 107 82 107 149 0 26 -7 61 -15 77 -16 30 -78 72 -137 92 -23 8 -281 14 -853 19 -451 4 -1047 10 -1325 13 -278 2 -528 1 -556 -3z"/>
    <path d="M1877 4906 c-184 -41 -249 -229 -113 -330 31 -24 -22 -23 581 -11 317 5 999 -6 1257 -21 73 -5 92 -2 126 15 138 71 135 240 -7 319 -57 33 -163 39 -316 19 -237 -31 -471 -39 -795 -28 -168 5 -343 16 -390 24 -131 23 -276 28 -343 13z"/>
    <path d="M5051 3969 c-158 -20 -389 -95 -542 -175 -167 -88 -494 -392 -608 -564 -118 -180 -230 -445 -296 -705 -76 -297 -64 -642 31 -931 37 -115 146 -330 224 -448 86 -127 214 -273 311 -352 258 -212 494 -324 854 -405 131 -30 383 -37 535 -15 402 58 794 229 1045 457 297 268 500 615 587 1001 20 89 23 130 23 293 -1 170 -4 203 -29 315 -35 159 -111 388 -168 511 -169 359 -568 724 -958 874 -144 56 -276 92 -423 114 -251 39 -443 49 -586 30z m494 -435 c251 -37 439 -109 640 -242 299 -198 479 -456 569 -819 41 -161 52 -282 37 -412 -44 -406 -248 -750 -588 -992 -326 -232 -764 -341 -1088 -270 -243 52 -386 110 -557 223 -263 175 -501 514 -575 820 -27 112 -25 389 5 526 56 256 158 496 280 656 81 105 256 263 381 343 145 93 324 164 461 183 84 11 307 3 435 -16z"/>
    <path d="M5451 2888 c-60 -31 -83 -66 -88 -130 -3 -42 1 -60 19 -90 20 -33 147 -156 311 -305 31 -28 57 -54 57 -57 0 -10 -799 2 -960 15 -91 8 -183 13 -205 13 -144 -2 -250 -111 -231 -239 9 -57 38 -99 88 -128 74 -43 149 -57 377 -68 214 -11 270 -9 644 22 70 5 142 9 159 7 32 -3 31 -3 -29 -41 -156 -96 -223 -173 -223 -259 0 -158 176 -229 327 -133 83 54 327 260 470 399 161 156 185 204 143 290 -48 100 -590 649 -693 702 -52 27 -117 28 -166 2z"/>
    <path d="M1800 3208 c-100 -29 -153 -127 -128 -241 13 -64 57 -110 120 -125 28 -7 155 -8 358 -5 173 3 466 1 650 -5 382 -10 455 -6 543 36 91 43 108 60 114 113 5 41 2 50 -27 82 -17 20 -62 51 -98 69 l-67 33 -265 -3 c-305 -4 -640 10 -887 38 -188 22 -259 24 -313 8z"/>
  </g>
</svg>