<svg version="1.0" xmlns="http://www.w3.org/2000/svg" width="800.000000" height="800.000000" viewBox="0 0 800.000000 800.000000" preserveAspectRatio="xMidYMid meet">
  <metadata>
    <rdf:RDF xmlns:rdf="http://www.w3.org/1999/02/22-rdf-syntax-ns#" xmlns:rdfs="http://www.w3.org/2000/01/rdf-schema#" xmlns:dc="http://purl.org/dc/elements/1.1/">
      <rdf:Description dc:format="image/svg+xml" dc:Label="1" dc:ContentProducer="001191330110MACRLGPT8B00000" dc:ProduceID="374709138" dc:ReservedCode1="r3bvZ0DS8GGrHGBRHNL0+12EHR7pApEih3mkC5nyP1c=" dc:ContentPropagator="001191330110MACRLGPT8B00000" dc:PropagateID="374709138" dc:ReservedCode2="r3bvZ0DS8GGrHGBRHNL0+12EHR7pApEih3mkC5nyP1c="/>
    </rdf:RDF>
  </metadata>
  <g transform="translate(190.000000,619.538355) scale(0.053538,-0.053538)" fill="#000000" stroke="none">
    <path d="M2940 7600 c-289 -40 -453 -188 -497 -450 -17 -100 -14 -164 21 -450 8 -63 16 -169 18 -235 l3 -120 -80 -2 c-290 -8 -1102 -34 -1209 -38 -158 -7 -330 -35 -453 -75 -368 -118 -627 -394 -723 -771 -20 -76 -20 -119 -20 -2058 l0 -1980 34 -93 c43 -119 105 -229 182 -326 181 -226 433 -336 873 -381 132 -14 562 -14 801 0 361 21 2201 29 2440 10 502 -39 545 -40 1505 -30 512 5 975 14 1030 19 148 16 286 54 400 110 192 93 303 225 399 475 115 299 131 542 114 1685 -12 781 -8 909 33 1300 34 324 40 458 29 715 -19 439 -55 626 -160 835 -187 372 -491 557 -997 609 -273 28 -571 24 -1122 -15 -112 -8 -214 -14 -227 -14 l-24 0 0 143 c0 78 5 215 12 305 18 249 -2 385 -83 557 -42 90 -135 185 -215 221 -126 56 -150 57 -594 44 -316 -10 -465 -10 -680 0 -376 16 -732 20 -810 10z m1866 -436 c81 -60 93 -121 101 -519 l6 -300 -309 -3 c-484 -6 -722 -5 -1256 3 l-496 7 -9 97 c-14 165 -10 601 6 639 34 80 80 84 846 84 352 0 672 3 710 8 39 4 138 7 222 6 136 -1 154 -3 179 -22z m-25 -1184 c57 -6 136 -19 174 -30 194 -53 350 -50 875 17 96 12 207 17 385 17 536 0 794 -64 970 -241 166 -167 239 -376 281 -803 23 -239 23 -499 0 -750 -20 -217 -23 -423 -16 -1400 4 -441 -1 -567 -36 -935 -14 -157 -85 -400 -155 -535 -53 -102 -116 -173 -186 -205 -125 -60 -345 -98 -649 -115 -871 -46 -1302 -48 -2214 -10 -171 7 -432 7 -865 -1 -555 -10 -643 -10 -840 5 -172 13 -329 16 -710 15 -462 -2 -498 -1 -635 20 -361 55 -481 101 -610 230 -81 83 -126 151 -169 258 -63 156 -79 251 -106 628 -16 230 -24 1466 -11 1850 3 116 11 368 16 560 11 378 21 494 52 624 64 273 186 480 333 567 165 96 470 154 975 184 96 5 272 17 390 26 118 9 406 19 640 23 691 12 1996 12 2111 1z"/>
    <path d="M3955 5489 c-60 -10 -168 -24 -239 -29 -231 -19 -309 -52 -350 -151 -37 -88 -68 -421 -102 -1094 -3 -60 -7 -121 -10 -134 l-5 -24 -332 7 c-183 3 -415 9 -517 12 -438 14 -505 -26 -532 -316 -7 -74 -13 -252 -13 -395 0 -300 7 -338 77 -406 81 -79 175 -91 618 -78 184 5 427 13 540 18 113 4 211 5 218 3 10 -3 12 -22 8 -71 -23 -288 -30 -455 -30 -781 l-1 -375 29 -63 c16 -34 44 -75 62 -91 59 -52 86 -56 359 -55 387 2 569 33 656 111 78 71 105 162 120 413 12 197 9 269 -22 560 -10 102 -19 205 -19 230 l0 46 183 0 c100 1 229 6 287 13 58 6 219 23 358 36 271 27 381 45 452 76 56 25 75 43 108 99 29 48 27 26 48 450 7 144 -5 298 -32 385 -60 201 -200 235 -955 235 l-419 0 -1 103 c0 56 -4 152 -9 212 -4 61 -15 214 -24 340 -33 486 -43 551 -95 623 -31 45 -108 89 -175 101 -78 14 -109 13 -241 -10z m177 -549 c3 -145 11 -325 17 -399 5 -75 13 -188 16 -251 9 -163 23 -285 37 -317 42 -97 126 -163 232 -182 74 -14 218 -14 406 -1 207 15 708 16 723 1 15 -15 29 -270 25 -439 -4 -151 -5 -152 -81 -152 -26 0 -107 -7 -180 -15 -73 -8 -242 -23 -377 -35 -135 -11 -297 -24 -360 -30 -135 -11 -197 -28 -263 -70 -58 -37 -99 -99 -123 -188 -17 -61 -19 -112 -19 -564 0 -273 -4 -500 -8 -504 -14 -14 -154 -23 -396 -23 l-233 -1 6 438 c10 610 -4 766 -76 848 -42 47 -93 72 -176 84 -96 13 -1023 24 -1093 13 l-56 -9 -8 270 c-5 149 -9 298 -9 331 l-1 60 62 3 c33 2 144 -7 245 -18 232 -27 753 -39 850 -20 81 16 128 40 170 89 77 90 88 186 97 836 l6 470 40 14 c29 10 90 14 230 13 105 0 208 3 230 7 22 5 45 8 50 6 6 -1 13 -103 17 -265z"/>
  </g>
</svg>