<svg version="1.0" xmlns="http://www.w3.org/2000/svg" width="800.000000" height="800.000000" viewBox="0 0 800.000000 800.000000" preserveAspectRatio="xMidYMid meet">
  <metadata>
    <rdf:RDF xmlns:rdf="http://www.w3.org/1999/02/22-rdf-syntax-ns#" xmlns:rdfs="http://www.w3.org/2000/01/rdf-schema#" xmlns:dc="http://purl.org/dc/elements/1.1/">
      <rdf:Description dc:format="image/svg+xml" dc:Label="1" dc:ContentProducer="001191330110MACRLGPT8B00000" dc:ProduceID="374708791" dc:ReservedCode1="w5DjJLypkNzKB0Qz5h6WHr27QrQVLWhJYINKbdeTpKk=" dc:ContentPropagator="001191330110MACRLGPT8B00000" dc:PropagateID="374708791" dc:ReservedCode2="w5DjJLypkNzKB0Qz5h6WHr27QrQVLWhJYINKbdeTpKk="/>
    </rdf:RDF>
  </metadata>
  <g transform="translate(188.818894,627.266397) scale(0.055024,-0.055024)" fill="#000000" stroke="none">
    <path d="M3635 7934 c-22 -2 -92 -9 -155 -15 -377 -35 -735 -139 -1197 -345 -441 -196 -759 -411 -1074 -724 -434 -432 -691 -853 -931 -1525 -139 -391 -215 -711 -238 -1001 -6 -71 -13 -147 -16 -169 -13 -96 28 -555 70 -785 100 -535 364 -1105 744 -1603 351 -459 730 -761 1310 -1043 451 -220 687 -285 1392 -385 129 -19 698 -19 830 -1 381 53 621 124 972 288 352 165 603 324 898 568 187 156 464 444 653 681 283 354 489 797 656 1415 29 110 68 307 88 450 21 153 24 533 5 695 -53 452 -160 842 -342 1240 -134 292 -207 423 -265 474 -124 108 -305 17 -305 -152 0 -47 9 -73 59 -173 32 -66 75 -157 95 -204 21 -47 41 -94 46 -105 60 -134 143 -370 188 -535 72 -260 141 -770 127 -950 -48 -644 -262 -1312 -569 -1770 -239 -358 -661 -773 -1036 -1021 -407 -268 -824 -436 -1240 -499 -395 -60 -771 -44 -1230 51 -416 86 -699 195 -1115 432 -483 274 -811 609 -1159 1187 -71 116 -185 345 -222 443 -15 39 -30 77 -34 82 -16 21 -99 295 -125 410 -15 66 -35 186 -46 267 -61 476 -37 818 92 1283 195 705 467 1204 899 1649 358 368 675 568 1290 811 535 211 1108 262 1677 149 420 -83 709 -185 1003 -355 117 -67 192 -92 255 -86 101 10 175 86 175 180 0 63 -12 89 -67 148 -50 53 -100 83 -243 142 -47 19 -119 51 -160 70 -450 210 -958 322 -1510 331 -113 2 -223 2 -245 0z"/>
    <path d="M2265 4681 c-209 -60 -374 -208 -446 -400 -51 -138 -44 -234 28 -381 156 -320 535 -434 853 -257 130 72 252 240 281 385 34 175 -34 387 -165 512 -142 137 -367 194 -551 141z m226 -311 c45 -13 106 -70 130 -124 35 -77 21 -186 -34 -258 -55 -72 -188 -116 -270 -89 -59 20 -122 76 -151 133 -46 93 -31 213 34 260 26 19 214 88 240 88 8 0 31 -5 51 -10z"/>
    <path d="M3670 4676 c-114 -40 -172 -76 -251 -155 -116 -116 -169 -238 -169 -389 0 -149 54 -278 159 -382 117 -117 234 -163 416 -164 127 -1 201 17 310 73 148 76 262 243 286 421 36 260 -131 500 -414 595 -102 34 -241 34 -337 1z m264 -321 c94 -40 154 -133 143 -225 -17 -139 -128 -229 -271 -218 -150 12 -245 129 -217 267 15 74 39 112 92 141 87 48 188 62 253 35z"/>
    <path d="M5138 4676 c-221 -78 -365 -251 -399 -481 -31 -205 101 -450 291 -542 123 -59 270 -76 403 -47 201 44 347 177 407 371 38 124 21 306 -41 432 -60 121 -202 232 -351 275 -86 25 -227 21 -310 -8z m258 -337 c53 -26 70 -49 90 -121 26 -99 15 -160 -42 -227 -75 -89 -215 -95 -306 -13 -50 46 -68 86 -68 154 1 167 176 277 326 207z"/>
  </g>
</svg>