<svg version="1.0" xmlns="http://www.w3.org/2000/svg" width="800.000000" height="800.000000" viewBox="0 0 800.000000 800.000000" preserveAspectRatio="xMidYMid meet">
  <metadata>
    <rdf:RDF xmlns:rdf="http://www.w3.org/1999/02/22-rdf-syntax-ns#" xmlns:rdfs="http://www.w3.org/2000/01/rdf-schema#" xmlns:dc="http://purl.org/dc/elements/1.1/">
      <rdf:Description dc:format="image/svg+xml" dc:Label="1" dc:ContentProducer="001191330110MACRLGPT8B00000" dc:ProduceID="374708790" dc:ReservedCode1="uyDBYV+Q3GNvINH/4uTzUnXP5RbBWjBKDu4zCG/wixs=" dc:ContentPropagator="001191330110MACRLGPT8B00000" dc:PropagateID="374708790" dc:ReservedCode2="uyDBYV+Q3GNvINH/4uTzUnXP5RbBWjBKDu4zCG/wixs="/>
    </rdf:RDF>
  </metadata>
  <g transform="translate(190.490147,622.198548) scale(0.054025,-0.054025)" fill="#000000" stroke="none">
    <path d="M3400 7993 c-29 -4 -170 -29 -255 -44 -176 -33 -475 -112 -665 -178 -294 -101 -599 -248 -820 -394 -433 -287 -819 -680 -1057 -1077 -237 -396 -439 -884 -529 -1285 -60 -264 -67 -353 -71 -963 -5 -627 -4 -650 63 -917 100 -400 279 -806 507 -1145 224 -333 571 -704 915 -978 232 -185 411 -287 786 -449 165 -71 163 -70 364 -142 418 -149 895 -214 1394 -190 497 23 868 102 1278 271 439 181 767 380 1043 632 426 390 716 772 974 1281 226 445 355 844 409 1260 22 172 26 741 5 895 -65 495 -189 896 -416 1345 -165 327 -264 473 -454 667 -62 65 -142 136 -177 158 -131 86 -259 109 -386 70 -123 -38 -205 -111 -266 -239 -31 -64 -37 -87 -40 -162 -8 -161 31 -258 196 -492 284 -404 436 -716 526 -1087 55 -225 60 -280 60 -645 1 -310 -1 -351 -22 -465 -85 -474 -284 -979 -505 -1285 -182 -252 -368 -438 -667 -667 -373 -285 -667 -426 -1135 -542 -288 -72 -352 -81 -560 -80 -175 0 -205 3 -385 37 -458 87 -779 197 -1169 402 -310 162 -387 217 -591 424 -178 181 -303 347 -472 631 -188 316 -221 387 -281 610 -73 273 -101 500 -101 810 1 344 31 588 110 884 135 508 344 876 691 1218 176 174 293 266 573 450 379 251 685 351 1275 418 227 25 393 25 637 0 379 -40 661 -99 875 -184 247 -97 393 -111 523 -50 143 67 270 254 270 397 0 175 -117 333 -326 440 -268 136 -670 259 -1094 332 l-205 35 -400 -1 c-220 -1 -411 -3 -425 -6z m685 -268 c329 -37 748 -127 964 -207 355 -132 564 -317 473 -420 -29 -34 -153 -21 -361 37 -235 65 -489 114 -976 187 -271 40 -457 43 -717 10 -640 -83 -1063 -243 -1518 -577 -574 -420 -896 -841 -1134 -1483 -136 -367 -201 -758 -200 -1202 1 -269 10 -361 60 -640 68 -372 123 -520 319 -850 231 -390 442 -664 673 -875 179 -162 298 -239 628 -404 326 -163 559 -249 907 -335 362 -90 543 -114 763 -102 157 9 479 71 674 131 25 7 97 28 160 45 353 98 654 266 1065 595 255 204 426 385 597 635 360 524 558 1055 609 1635 14 161 6 522 -15 700 -37 301 -141 646 -275 913 -74 147 -237 403 -397 623 -78 107 -102 203 -69 274 44 91 128 119 212 70 105 -61 274 -255 402 -459 113 -181 261 -511 351 -786 142 -430 188 -749 177 -1205 -13 -490 -108 -844 -387 -1441 -134 -285 -372 -639 -597 -889 -147 -163 -394 -397 -510 -484 -332 -247 -884 -499 -1297 -591 -616 -137 -1246 -117 -1830 60 -452 136 -902 353 -1160 558 -215 171 -478 428 -641 625 -180 218 -288 383 -406 617 -253 505 -342 808 -379 1279 -27 362 9 720 129 1251 53 234 139 456 308 794 155 311 300 515 545 771 454 474 992 787 1723 1004 156 47 420 95 790 144 70 9 219 6 340 -8z"/>
    <path d="M2940 6319 c-216 -20 -399 -145 -490 -333 -113 -234 -79 -467 95 -641 122 -123 253 -176 435 -176 126 -1 206 21 297 80 138 89 214 203 262 390 26 106 27 195 1 295 -66 260 -304 412 -600 385z m90 -274 c-2 -10 -160 -178 -160 -170 0 16 114 174 128 178 23 6 34 3 32 -8z m170 -55 l35 -29 -45 -38 c-89 -74 -271 -258 -342 -345 l-73 -88 -33 33 -34 34 154 154 c84 85 182 189 217 232 35 42 69 77 75 77 6 0 27 -14 46 -30z m-402 -7 c-28 -34 -106 -151 -127 -192 -27 -51 -35 -52 -26 -3 10 55 62 143 107 180 43 34 71 43 46 15z m461 -254 c-22 -125 -87 -227 -172 -271 -42 -21 -130 -39 -146 -29 -11 7 100 147 222 280 48 52 87 99 88 105 0 6 4 2 9 -10 4 -11 4 -45 -1 -75z"/>
    <path d="M2574 5130 c-113 -17 -282 -69 -399 -121 -195 -87 -474 -327 -639 -548 -183 -247 -356 -579 -356 -687 0 -51 22 -96 66 -132 44 -36 79 -46 134 -37 61 10 111 50 310 245 185 181 294 280 309 280 15 0 21 -101 21 -345 0 -283 23 -520 76 -790 64 -328 236 -717 358 -810 88 -67 205 -36 258 68 18 36 21 63 24 215 5 251 29 409 68 449 22 24 87 -26 276 -211 219 -215 393 -350 558 -433 99 -51 121 -58 184 -61 123 -7 182 45 180 160 -1 72 -29 134 -106 232 -164 211 -209 270 -265 353 -127 190 -189 349 -221 572 -18 119 -8 384 18 481 28 101 49 150 67 150 15 0 117 -70 245 -168 60 -46 170 -96 248 -113 63 -13 112 5 142 53 48 75 -1 207 -172 465 -75 112 -117 162 -247 292 -171 173 -277 252 -434 326 -115 55 -196 83 -295 102 -88 17 -331 25 -408 13z m351 -279 c238 -49 469 -183 657 -379 80 -84 172 -201 164 -210 -3 -2 -44 15 -92 38 -106 51 -182 67 -242 51 -154 -42 -272 -327 -272 -654 1 -276 77 -538 243 -831 16 -26 91 -139 134 -198 19 -27 32 -48 29 -48 -10 0 -163 135 -300 264 -239 225 -309 270 -418 270 -56 0 -74 -5 -114 -30 -57 -35 -103 -99 -138 -191 -37 -99 -46 -144 -53 -282 l-6 -124 -20 39 c-51 99 -135 375 -171 559 -36 186 -93 623 -116 895 -19 225 -35 274 -100 317 -42 29 -109 30 -170 2 -58 -26 -160 -104 -288 -219 -57 -51 -106 -90 -109 -87 -8 8 59 116 140 227 80 109 269 301 372 378 256 190 588 271 870 213z"/>
    <path d="M2709 4671 c-36 -28 -287 -312 -320 -362 -46 -70 -36 -129 22 -129 38 0 107 59 229 195 170 189 199 240 166 290 -20 31 -63 33 -97 6z"/>
    <path d="M2910 4423 c-69 -45 -455 -431 -498 -497 -49 -76 -41 -111 30 -122 55 -9 106 35 248 211 70 88 167 205 214 260 87 101 122 157 111 175 -12 19 -51 10 -105 -27z"/>
    <path d="M2892 3939 c-60 -39 -344 -391 -401 -499 -36 -66 -37 -73 -15 -94 18 -19 63 -21 99 -4 23 10 327 405 384 498 25 41 27 82 5 104 -20 21 -32 20 -72 -5z"/>
    <path d="M5145 4580 c-113 -24 -196 -72 -282 -163 -213 -228 -172 -564 88 -716 l54 -32 -195 6 c-107 4 -257 13 -334 21 -195 20 -303 19 -346 -4 -75 -40 -100 -151 -50 -222 36 -51 202 -153 422 -259 112 -54 216 -111 231 -127 43 -42 54 -79 71 -231 32 -270 37 -309 57 -388 11 -44 31 -98 44 -120 99 -169 279 -156 315 22 7 32 20 74 30 93 46 89 144 137 237 116 42 -10 128 -104 189 -207 61 -106 117 -166 164 -180 123 -37 214 81 195 254 -13 127 -47 314 -86 480 -67 283 -70 277 260 609 135 136 253 262 262 280 36 67 16 150 -46 188 -32 20 -46 22 -113 18 -65 -5 -101 -15 -237 -71 -88 -36 -198 -80 -245 -100 -120 -48 -280 -100 -288 -93 -3 4 11 23 31 42 50 48 102 157 118 244 55 310 -240 602 -546 540z m16 -297 c-5 -10 -24 -31 -41 -48 -18 -16 -52 -57 -76 -90 -49 -65 -57 -54 -20 27 25 56 51 85 101 111 39 21 48 21 36 0z m214 -39 c0 -6 -52 -70 -115 -143 -63 -73 -122 -143 -130 -157 -17 -28 -35 -31 -49 -7 -7 14 8 36 82 117 152 167 162 177 170 192 10 17 42 15 42 -2z m36 -194 c-16 -55 -66 -117 -112 -140 -80 -41 -75 -21 23 102 75 96 94 114 96 96 2 -12 -1 -38 -7 -58z m424 -517 c-129 -129 -186 -253 -187 -403 0 -104 11 -164 63 -334 22 -71 38 -131 36 -132 -2 -2 -30 22 -63 54 -108 105 -210 133 -341 94 -85 -26 -151 -69 -211 -138 -25 -30 -49 -51 -53 -47 -6 8 -23 131 -34 253 -20 220 -50 307 -137 393 -51 51 -126 99 -198 127 -87 34 -75 36 170 32 264 -5 396 5 589 44 105 21 373 103 389 119 3 3 14 5 25 5 15 0 3 -17 -48 -67z"/>
    <path d="M5381 3253 c-67 -69 -158 -182 -200 -249 -34 -52 -40 -98 -15 -108 54 -21 89 6 225 175 99 122 121 159 117 201 -3 29 -7 33 -37 36 -30 3 -40 -3 -90 -55z"/>
  </g>
</svg>