<svg version="1.0" xmlns="http://www.w3.org/2000/svg" width="800.000000" height="800.000000" viewBox="0 0 800.000000 800.000000" preserveAspectRatio="xMidYMid meet">
  <metadata>
    <rdf:RDF xmlns:rdf="http://www.w3.org/1999/02/22-rdf-syntax-ns#" xmlns:rdfs="http://www.w3.org/2000/01/rdf-schema#" xmlns:dc="http://purl.org/dc/elements/1.1/">
      <rdf:Description dc:format="image/svg+xml" dc:Label="1" dc:ContentProducer="001191330110MACRLGPT8B00000" dc:ProduceID="374708471" dc:ReservedCode1="heHVmbk8MJc7f7Zt5vvg8XT86yOOan/T7sOeosSTmOA=" dc:ContentPropagator="001191330110MACRLGPT8B00000" dc:PropagateID="374708471" dc:ReservedCode2="heHVmbk8MJc7f7Zt5vvg8XT86yOOan/T7sOeosSTmOA="/>
    </rdf:RDF>
  </metadata>
  <g transform="translate(187.203430,627.243675) scale(0.055208,-0.055208)" fill="#000000" stroke="none">
    <path d="M5060 7559 c-171 -44 -365 -174 -505 -336 -192 -224 -344 -553 -432 -938 -25 -111 -25 -340 0 -445 75 -308 295 -545 599 -644 144 -47 234 -60 380 -53 149 7 263 33 369 86 284 142 428 381 509 846 34 198 43 313 37 480 -15 397 -104 647 -296 827 -184 172 -428 238 -661 177z m278 -468 c26 -14 81 -96 104 -156 104 -265 88 -740 -36 -1068 -45 -119 -96 -179 -186 -221 -36 -17 -65 -21 -150 -21 -61 0 -126 6 -155 14 -176 50 -278 164 -306 340 -9 61 -8 90 6 174 65 389 288 798 504 925 69 40 158 46 219 13z"/>
    <path d="M2270 7544 c-223 -50 -343 -174 -437 -449 -116 -339 -180 -702 -170 -960 14 -356 100 -568 298 -735 156 -130 347 -190 609 -190 143 0 235 17 375 69 127 48 190 80 290 146 187 124 270 272 295 525 19 188 -20 404 -120 660 -126 325 -206 467 -357 639 -115 130 -294 245 -448 287 -84 22 -254 27 -335 8z m277 -484 c104 -47 191 -149 282 -330 83 -165 132 -292 182 -465 33 -116 33 -279 1 -350 -45 -97 -158 -176 -322 -225 -61 -18 -92 -21 -170 -18 -111 5 -166 25 -232 87 -96 88 -134 231 -125 461 13 297 115 723 195 814 42 47 120 58 189 26z"/>
    <path d="M6875 5505 c-220 -42 -408 -157 -626 -382 -223 -232 -311 -416 -295 -618 14 -191 111 -357 291 -501 190 -152 444 -237 640 -213 181 22 316 91 455 233 189 194 303 446 317 706 10 180 -32 350 -125 504 -133 221 -380 323 -657 271z m202 -481 c18 -14 40 -39 49 -56 67 -129 56 -276 -31 -453 -53 -106 -109 -175 -173 -213 -40 -23 -58 -27 -122 -27 -66 0 -84 5 -150 36 -197 95 -254 218 -175 376 61 122 194 249 335 319 123 61 204 66 267 18z"/>
    <path d="M530 5360 c-241 -64 -407 -211 -465 -414 -14 -47 -17 -85 -13 -175 5 -105 9 -129 52 -256 50 -147 158 -375 228 -479 66 -99 192 -216 284 -263 147 -77 243 -98 407 -91 230 11 441 120 590 307 114 144 172 304 165 456 -10 179 -105 344 -331 574 -181 184 -300 266 -464 321 -88 30 -112 33 -238 36 -116 3 -153 1 -215 -16z m374 -489 c159 -79 361 -311 382 -437 15 -96 -50 -189 -172 -246 -59 -28 -73 -30 -139 -26 -57 4 -85 11 -126 35 -87 49 -178 173 -246 339 -35 83 -37 96 -38 196 0 97 2 109 22 129 56 56 214 61 317 10z"/>
    <path d="M3855 4809 c-347 -45 -666 -208 -1080 -554 -261 -218 -661 -645 -881 -940 -147 -198 -299 -445 -406 -660 -213 -427 -239 -786 -84 -1173 271 -677 946 -999 1556 -744 41 18 131 64 200 102 161 92 292 154 385 184 209 66 483 73 706 16 87 -22 251 -91 414 -172 241 -121 392 -162 600 -163 290 0 468 78 827 367 141 113 279 249 349 341 152 202 243 502 219 722 -26 226 -111 425 -366 846 -186 308 -232 372 -472 653 -215 251 -374 409 -572 567 -221 176 -320 246 -481 343 -248 149 -456 232 -650 260 -116 17 -158 18 -264 5z m281 -490 c84 -15 197 -55 284 -100 77 -40 335 -225 495 -355 271 -220 625 -619 838 -944 260 -399 393 -722 371 -903 -25 -207 -109 -347 -311 -514 -284 -236 -392 -293 -553 -293 -127 0 -252 40 -566 180 -239 107 -406 152 -646 172 -273 23 -595 -30 -833 -137 -33 -15 -141 -67 -240 -115 -232 -113 -320 -142 -440 -142 -268 1 -530 198 -654 490 -35 84 -71 249 -71 328 0 72 32 234 63 314 82 219 278 539 552 905 157 208 278 347 451 514 370 358 625 517 949 595 72 17 229 20 311 5z"/>
    <path d="M4024 3911 c-85 -39 -126 -140 -90 -224 25 -60 309 -351 374 -383 102 -51 207 -17 260 86 53 104 21 171 -160 342 -149 142 -169 158 -215 182 -42 21 -118 20 -169 -3z"/>
    <path d="M4725 3301 c-43 -19 -100 -78 -116 -118 -15 -41 -10 -111 11 -153 11 -22 84 -106 163 -188 78 -81 173 -184 212 -227 38 -44 118 -133 177 -197 59 -64 123 -139 143 -166 65 -91 138 -129 227 -119 96 12 170 80 184 173 12 82 1 97 -296 403 -153 157 -325 343 -383 412 -108 129 -158 172 -218 189 -46 13 -58 12 -104 -9z"/>
  </g>
</svg>