<svg version="1.0" xmlns="http://www.w3.org/2000/svg" width="800.000000" height="800.000000" viewBox="0 0 800.000000 800.000000" preserveAspectRatio="xMidYMid meet">
  <metadata>
    <rdf:RDF xmlns:rdf="http://www.w3.org/1999/02/22-rdf-syntax-ns#" xmlns:rdfs="http://www.w3.org/2000/01/rdf-schema#" xmlns:dc="http://purl.org/dc/elements/1.1/">
      <rdf:Description dc:format="image/svg+xml" dc:Label="1" dc:ContentProducer="001191330110MACRLGPT8B00000" dc:ProduceID="374708792" dc:ReservedCode1="Wbjp32xYTkHAPZIFfjA7ORW34ag3LlkU/p1voheEpCg=" dc:ContentPropagator="001191330110MACRLGPT8B00000" dc:PropagateID="374708792" dc:ReservedCode2="Wbjp32xYTkHAPZIFfjA7ORW34ag3LlkU/p1voheEpCg="/>
    </rdf:RDF>
  </metadata>
  <g transform="translate(190.000000,623.258753) scale(0.054061,-0.054061)" fill="#000000" stroke="none">
    <path d="M5050 7809 c-74 -5 -231 -15 -349 -24 -308 -23 -722 -29 -946 -16 -888 54 -1120 54 -1670 1 -352 -34 -481 -79 -631 -222 -166 -158 -262 -372 -294 -653 -14 -127 -14 -736 0 -898 26 -309 33 -462 37 -877 5 -458 -2 -601 -33 -666 -28 -58 -117 -85 -389 -119 -330 -41 -463 -68 -556 -115 -65 -34 -140 -101 -180 -162 l-39 -61 0 -199 c0 -197 0 -199 29 -261 62 -138 184 -291 375 -470 167 -157 383 -348 561 -497 83 -68 184 -154 225 -190 380 -334 523 -457 655 -565 83 -68 374 -307 655 -539 41 -34 125 -102 185 -152 61 -49 148 -121 195 -159 345 -282 460 -365 596 -428 374 -173 821 -108 1189 172 62 47 272 226 290 246 6 7 42 41 80 75 39 35 135 125 215 200 80 76 246 226 370 335 266 235 389 348 780 715 205 193 485 434 755 650 376 302 548 511 600 733 68 290 -120 557 -438 621 -121 24 -330 37 -569 34 -120 -1 -220 1 -224 4 -14 15 -24 90 -24 189 0 58 -7 177 -15 265 -12 125 -16 377 -18 1179 l-4 1020 -31 116 c-33 125 -101 289 -152 369 -80 124 -224 224 -420 290 -184 62 -447 81 -810 59z m537 -374 c106 -17 232 -57 292 -92 129 -75 185 -175 240 -428 41 -186 45 -319 47 -1445 1 -924 4 -1087 17 -1157 37 -198 126 -298 302 -338 53 -13 129 -15 388 -13 412 2 486 -13 531 -106 32 -68 12 -154 -65 -272 -83 -126 -167 -204 -524 -484 -216 -169 -513 -433 -886 -789 -112 -106 -267 -248 -344 -314 -224 -193 -396 -348 -603 -541 -323 -301 -546 -478 -677 -536 -208 -92 -431 -113 -610 -56 -146 47 -266 127 -586 391 -73 61 -199 162 -279 225 -81 63 -279 223 -441 355 -162 133 -341 279 -399 325 -297 240 -1311 1121 -1438 1250 -212 216 -268 400 -141 465 31 16 116 32 322 61 152 21 405 71 470 93 83 29 136 59 188 108 147 137 179 305 160 823 -17 441 -31 730 -47 955 -8 116 -14 253 -14 305 0 184 63 712 96 815 39 117 135 240 217 279 41 19 42 19 382 66 405 55 401 55 1370 53 653 -2 984 1 1205 11 343 16 695 12 827 -9z"/>
    <path d="M4519 6466 c-71 -25 -110 -59 -316 -274 -335 -350 -356 -372 -366 -372 -5 0 -48 39 -95 88 -141 142 -406 391 -463 434 -72 54 -113 73 -184 88 -159 33 -315 -36 -391 -172 -26 -48 -29 -62 -29 -143 0 -82 3 -97 33 -157 20 -42 65 -103 120 -163 48 -53 123 -136 167 -184 44 -49 116 -128 159 -175 56 -61 76 -90 67 -95 -6 -4 -74 -16 -149 -26 -322 -42 -462 -106 -529 -243 -56 -115 -29 -258 68 -352 99 -96 195 -119 514 -126 127 -3 249 -7 273 -10 l42 -5 0 -64 c0 -60 -2 -65 -27 -79 -39 -19 -284 -57 -458 -71 -100 -8 -193 -29 -246 -56 -187 -95 -229 -318 -86 -457 52 -51 117 -83 231 -116 83 -25 102 -26 325 -27 130 0 244 -4 255 -8 17 -7 19 -23 20 -247 2 -266 6 -289 74 -393 86 -131 257 -190 425 -146 79 21 125 46 175 96 116 118 155 273 162 639 l0 26 239 18 c132 9 270 24 307 32 97 20 182 63 241 122 70 70 97 129 101 223 5 96 -20 159 -88 223 -106 99 -184 118 -525 125 l-260 6 -3 73 -3 72 78 0 c130 0 404 21 471 36 132 30 238 114 303 240 32 64 34 74 34 168 0 88 -3 107 -25 150 -33 65 -104 120 -188 147 -58 19 -98 22 -304 27 -160 3 -238 8 -238 15 0 6 89 101 198 211 213 216 265 282 314 403 26 66 32 92 32 163 1 72 -3 94 -26 143 -37 79 -118 158 -191 185 -67 25 -180 29 -238 8z m-1428 -276 c45 -24 114 -91 390 -380 152 -159 209 -212 250 -233 73 -37 122 -36 182 4 25 17 159 147 297 289 138 142 269 270 291 286 56 38 131 40 161 4 16 -20 19 -35 16 -77 -7 -78 -51 -135 -304 -393 -121 -124 -232 -246 -247 -270 -54 -92 -44 -203 23 -270 75 -75 203 -100 520 -100 218 0 243 -6 248 -55 4 -47 -29 -90 -79 -104 -24 -6 -163 -18 -309 -27 -289 -17 -316 -21 -375 -59 -89 -58 -128 -150 -128 -305 -1 -187 47 -272 177 -312 63 -19 301 -37 406 -31 171 10 293 -21 307 -76 7 -30 -5 -51 -45 -74 -36 -21 -136 -32 -437 -46 -217 -10 -268 -21 -318 -69 -31 -29 -60 -81 -70 -122 -3 -14 -15 -102 -26 -197 -31 -259 -47 -315 -104 -355 -35 -25 -108 -29 -144 -9 -13 6 -33 31 -45 54 -19 38 -22 63 -28 262 -6 197 -9 225 -29 270 -27 61 -54 91 -106 117 -73 38 -99 41 -395 47 -262 6 -299 8 -330 25 -42 23 -50 33 -50 68 0 40 42 57 170 68 367 33 596 94 656 176 41 59 49 94 49 229 0 123 -2 133 -28 188 -32 65 -75 99 -154 123 -32 10 -130 19 -298 25 -321 13 -405 32 -405 94 0 44 74 77 211 94 315 40 429 72 488 136 65 71 67 148 5 243 -33 50 -360 397 -499 530 -66 62 -104 125 -105 170 0 13 13 37 29 53 26 25 37 29 86 29 36 0 70 -7 96 -20z"/>
  </g>
</svg>