<svg version="1.0" xmlns="http://www.w3.org/2000/svg" width="800.000000" height="800.000000" viewBox="0 0 800.000000 800.000000" preserveAspectRatio="xMidYMid meet">
  <metadata>
    <rdf:RDF xmlns:rdf="http://www.w3.org/1999/02/22-rdf-syntax-ns#" xmlns:rdfs="http://www.w3.org/2000/01/rdf-schema#" xmlns:dc="http://purl.org/dc/elements/1.1/">
      <rdf:Description dc:format="image/svg+xml" dc:Label="1" dc:ContentProducer="001191330110MACRLGPT8B00000" dc:ProduceID="374710334" dc:ReservedCode1="pG7h6PDs47WjBsvvZpgtv1T/Ojcc7oaAUrSv+hhD/xE=" dc:ContentPropagator="001191330110MACRLGPT8B00000" dc:PropagateID="374710334" dc:ReservedCode2="pG7h6PDs47WjBsvvZpgtv1T/Ojcc7oaAUrSv+hhD/xE="/>
    </rdf:RDF>
  </metadata>
  <g transform="translate(5.331755,824.543262) scale(0.102538,-0.102538)" fill="#000000" stroke="none">
    <path d="M3570 5923 c-236 -37 -500 -140 -696 -272 -278 -187 -542 -470 -664 -712 -71 -141 -35 -293 78 -327 54 -16 77 -15 120 7 51 26 74 53 193 230 132 195 235 319 341 408 322 273 652 358 1118 288 205 -31 323 -67 481 -145 251 -126 440 -305 557 -528 40 -77 92 -219 92 -253 0 -3 -26 1 -57 9 -55 14 -61 14 -105 -5 -53 -24 -78 -56 -85 -110 -6 -46 21 -99 172 -341 57 -92 127 -205 156 -250 56 -91 94 -122 149 -122 54 0 101 56 243 290 68 113 142 235 165 272 23 37 49 93 58 125 15 53 15 62 1 96 -32 76 -136 99 -252 56 -31 -12 -57 -19 -59 -17 -1 1 -7 39 -14 83 -20 145 -86 311 -179 455 -158 242 -346 409 -606 540 -223 112 -430 171 -733 210 -141 18 -397 25 -474 13z"/>
    <path d="M4249 5091 c-42 -23 -83 -72 -169 -201 -62 -93 -237 -348 -250 -363 -4 -4 -74 88 -156 205 -196 280 -211 298 -273 332 -47 25 -61 28 -113 23 -71 -6 -121 -40 -149 -101 -40 -89 -17 -167 83 -273 94 -100 272 -349 262 -365 -3 -4 -42 -8 -87 -8 -59 0 -94 -6 -124 -20 -105 -47 -111 -186 -10 -234 45 -21 155 -35 273 -36 100 0 104 -2 104 -61 0 -25 -3 -29 -22 -24 -13 3 -104 7 -203 8 -165 2 -183 0 -220 -19 -74 -38 -94 -124 -44 -188 46 -59 124 -78 372 -92 l117 -6 0 -106 c0 -196 22 -263 104 -316 32 -21 52 -26 102 -26 72 0 112 22 159 88 29 43 30 46 35 195 l5 151 100 -2 c55 -1 132 -5 170 -8 121 -10 203 28 226 105 16 53 -2 102 -53 145 -46 39 -105 56 -201 56 -34 0 -106 3 -159 7 l-98 6 0 41 0 41 187 0 c207 0 225 4 277 65 47 57 25 132 -53 178 -41 24 -59 27 -164 32 -69 3 -117 9 -117 15 1 6 72 99 159 207 178 224 204 267 209 353 4 73 -23 133 -81 179 -49 39 -142 47 -198 17z"/>
    <path d="M2215 4541 c-39 -23 -58 -48 -75 -91 -13 -33 -179 -362 -289 -573 -56 -107 -63 -149 -31 -190 31 -40 79 -50 201 -45 l107 5 11 -56 c26 -132 105 -333 181 -457 82 -135 177 -238 340 -367 168 -134 291 -206 483 -283 336 -135 632 -165 990 -99 191 36 349 89 508 172 195 102 545 399 681 578 78 104 156 243 164 292 17 113 -66 213 -176 213 -86 0 -154 -55 -216 -175 -110 -211 -424 -486 -693 -607 -138 -62 -303 -101 -535 -127 -138 -16 -416 28 -586 92 -258 97 -488 281 -628 502 -39 60 -111 210 -133 272 l-19 56 38 -7 c135 -24 184 -17 222 32 38 48 28 107 -41 239 -34 65 -103 186 -154 268 -51 83 -107 179 -125 215 -18 36 -43 80 -57 98 -46 61 -112 78 -168 43z"/>
  </g>
</svg>