<svg version="1.0" xmlns="http://www.w3.org/2000/svg" width="800.000000" height="800.000000" viewBox="0 0 800.000000 800.000000" preserveAspectRatio="xMidYMid meet">
  <metadata>
    <rdf:RDF xmlns:rdf="http://www.w3.org/1999/02/22-rdf-syntax-ns#" xmlns:rdfs="http://www.w3.org/2000/01/rdf-schema#" xmlns:dc="http://purl.org/dc/elements/1.1/">
      <rdf:Description dc:format="image/svg+xml" dc:Label="1" dc:ContentProducer="001191330110MACRLGPT8B00000" dc:ProduceID="374709139" dc:ReservedCode1="ldr9lmmrJfGp4QxYVACf4GPOIkGeaghdtOLflOcWumA=" dc:ContentPropagator="001191330110MACRLGPT8B00000" dc:PropagateID="374709139" dc:ReservedCode2="ldr9lmmrJfGp4QxYVACf4GPOIkGeaghdtOLflOcWumA="/>
    </rdf:RDF>
  </metadata>
  <g transform="translate(193.132550,618.750260) scale(0.053598,-0.053598)" fill="#000000" stroke="none">
    <path d="M990 7960 c-226 -90 -395 -218 -509 -384 -229 -333 -310 -949 -164 -1246 53 -109 117 -167 308 -279 311 -183 381 -226 540 -331 413 -275 522 -326 640 -300 26 6 62 22 80 36 50 38 87 98 266 436 44 84 106 191 137 238 80 121 242 280 377 369 120 79 385 215 535 275 213 85 511 137 695 121 172 -14 463 -63 640 -106 244 -60 497 -220 735 -465 173 -178 271 -320 379 -546 77 -162 114 -211 186 -244 58 -28 150 -32 211 -10 106 37 562 284 804 434 108 67 261 185 316 244 130 137 232 343 265 535 16 89 5 297 -19 393 -68 266 -249 518 -479 666 -119 77 -294 146 -478 188 -63 15 -318 16 -2720 15 l-2650 -1 -95 -38z m2738 -210 c167 -6 563 -10 880 -10 645 -1 1041 -12 1272 -35 575 -58 794 -134 990 -341 68 -72 121 -163 161 -274 20 -56 23 -84 23 -205 0 -125 -3 -149 -27 -222 -52 -156 -161 -286 -349 -416 -199 -137 -667 -402 -682 -386 -2 2 -30 56 -61 119 -103 207 -231 381 -438 597 -134 139 -259 245 -389 330 -250 164 -409 216 -918 299 -153 25 -453 30 -590 10 -269 -40 -480 -111 -791 -266 -267 -133 -411 -232 -570 -390 -150 -148 -253 -301 -442 -654 -47 -88 -84 -146 -93 -146 -22 0 -78 34 -374 225 -146 95 -310 198 -365 230 -153 89 -236 148 -286 202 -66 70 -74 112 -74 358 1 175 4 211 24 290 98 387 374 573 947 640 159 18 650 38 1474 59 108 2 244 0 678 -14z"/>
    <path d="M3169 6514 c-67 -20 -124 -79 -145 -150 -33 -114 0 -193 129 -314 212 -198 341 -339 325 -355 -3 -3 -56 -9 -119 -14 -128 -11 -200 -29 -274 -71 -86 -49 -125 -109 -125 -192 1 -91 53 -157 165 -210 89 -41 161 -52 343 -53 l162 0 0 -132 0 -133 -169 0 c-297 0 -430 -43 -477 -155 -44 -106 12 -220 131 -264 69 -26 296 -46 425 -37 l95 6 0 -263 c0 -251 1 -264 22 -303 50 -93 165 -159 278 -159 39 0 87 6 107 13 52 19 113 84 140 150 21 54 22 70 22 285 l-1 227 101 0 c112 0 175 14 269 57 105 50 157 118 157 205 -1 94 -67 175 -168 204 -48 14 -85 16 -229 11 l-173 -6 0 138 0 138 153 6 c127 4 163 9 219 30 170 62 239 189 173 322 -49 102 -133 142 -320 155 -66 5 -121 9 -122 9 -12 3 8 31 79 112 175 202 275 327 297 372 26 54 30 130 10 196 -15 52 -87 134 -140 161 -56 29 -146 27 -207 -4 -51 -26 -242 -215 -352 -350 -36 -43 -75 -90 -86 -105 l-22 -25 -88 79 c-49 44 -164 154 -256 245 -200 196 -222 207 -329 174z"/>
    <path d="M7145 5576 c-72 -18 -143 -57 -295 -161 -74 -51 -227 -147 -340 -215 -113 -67 -274 -163 -359 -213 -260 -156 -317 -216 -406 -429 -71 -170 -83 -195 -131 -291 -163 -323 -338 -504 -686 -711 -111 -66 -226 -117 -381 -170 -213 -73 -409 -101 -637 -93 -496 19 -994 200 -1353 495 -91 74 -196 195 -258 299 -46 76 -73 130 -208 418 -134 284 -221 365 -531 496 -172 73 -357 175 -504 278 -237 166 -478 281 -586 281 -105 0 -162 -48 -184 -154 -36 -173 -41 -355 -41 -1416 1 -1614 33 -2554 100 -2871 31 -147 97 -303 178 -424 53 -78 195 -220 274 -273 95 -65 233 -130 335 -158 89 -25 109 -27 453 -35 198 -4 434 -13 525 -18 91 -6 278 -11 417 -11 138 0 352 -4 475 -9 713 -31 1137 -35 1696 -17 301 9 817 21 1147 26 330 5 635 11 677 15 286 21 559 180 718 416 118 177 189 423 221 769 12 135 11 237 -8 1630 -4 300 -2 645 6 905 6 231 13 614 15 851 4 379 2 445 -13 536 -24 137 -61 206 -131 243 -39 20 -129 26 -185 11z m-6532 -363 c77 -44 158 -98 422 -279 61 -41 209 -131 330 -200 282 -160 309 -185 420 -405 169 -336 238 -454 331 -574 223 -287 657 -569 1074 -698 573 -177 1145 -160 1620 48 591 259 966 633 1205 1204 56 132 107 214 165 260 23 18 134 91 248 161 349 216 401 250 565 367 88 62 162 113 165 113 9 0 -7 -1131 -19 -1335 -8 -125 -10 -383 -6 -750 6 -601 -5 -1295 -23 -1490 -27 -297 -80 -544 -148 -688 -82 -174 -248 -300 -473 -357 -105 -27 -259 -37 -794 -50 -236 -6 -576 -15 -755 -20 -410 -12 -1267 -12 -1640 0 -157 6 -508 14 -780 19 -273 6 -502 12 -510 15 -8 3 -150 12 -315 21 -165 9 -330 22 -366 30 -189 39 -377 155 -485 299 -119 158 -170 327 -214 716 -42 375 -57 690 -70 1450 -11 670 -25 1204 -40 1550 -13 295 -13 640 0 640 6 0 48 -21 93 -47z"/>
  </g>
</svg>