<svg version="1.0" xmlns="http://www.w3.org/2000/svg" width="800.000000" height="800.000000" viewBox="0 0 800.000000 800.000000" preserveAspectRatio="xMidYMid meet">
  <metadata>
    <rdf:RDF xmlns:rdf="http://www.w3.org/1999/02/22-rdf-syntax-ns#" xmlns:rdfs="http://www.w3.org/2000/01/rdf-schema#" xmlns:dc="http://purl.org/dc/elements/1.1/">
      <rdf:Description dc:format="image/svg+xml" dc:Label="1" dc:ContentProducer="001191330110MACRLGPT8B00000" dc:ProduceID="374708560" dc:ReservedCode1="jHdt13KfoVztKxk7PYySzL+LYEBuipk7Le58COo5fgc=" dc:ContentPropagator="001191330110MACRLGPT8B00000" dc:PropagateID="374708560" dc:ReservedCode2="jHdt13KfoVztKxk7PYySzL+LYEBuipk7Le58COo5fgc="/>
    </rdf:RDF>
  </metadata>
  <g transform="translate(187.374403,628.585027) scale(0.055494,-0.055494)" fill="#000000" stroke="none">
    <path d="M3740 7899 c-750 -28 -917 -31 -1365 -24 -505 7 -633 1 -878 -35 -186 -28 -232 -38 -319 -66 -206 -67 -362 -209 -477 -434 -120 -235 -176 -461 -203 -819 -9 -115 -9 -203 -1 -345 8 -126 9 -406 5 -826 -4 -349 -6 -966 -5 -1370 2 -744 7 -891 54 -1504 15 -199 13 -431 -6 -736 -33 -511 -8 -680 130 -895 160 -248 414 -413 736 -476 61 -12 1480 -23 2419 -19 179 1 471 -3 650 -9 337 -12 525 -7 935 24 105 8 322 15 485 15 474 0 616 29 822 168 153 103 263 256 342 475 60 167 61 179 58 852 -2 422 2 738 13 1025 30 788 34 1059 31 2095 -1 572 0 1173 3 1335 11 562 -11 698 -158 987 -121 238 -329 408 -606 496 -147 47 -264 66 -480 77 -215 11 -1935 18 -2185 9z m2261 -513 c219 -27 344 -81 454 -195 79 -82 120 -153 166 -290 l42 -126 9 -660 c9 -646 4 -1553 -10 -1809 l-7 -129 -250 -127 c-137 -69 -306 -149 -375 -177 -212 -85 -921 -313 -975 -313 -8 0 -19 18 -26 42 -14 55 -87 209 -128 273 -80 126 -247 294 -378 381 -253 168 -607 247 -893 199 -119 -19 -241 -55 -315 -92 -242 -122 -425 -349 -571 -708 l-32 -80 -54 -3 c-156 -10 -419 67 -836 244 -323 138 -513 207 -849 310 -10 2 -13 39 -13 141 1 274 20 1204 30 1448 5 138 15 367 20 510 19 492 68 772 159 912 57 86 115 130 208 158 49 15 340 68 463 85 36 5 436 10 890 11 454 0 863 4 910 8 47 5 569 7 1160 5 899 -2 1096 -5 1201 -18z m-1951 -3425 c254 -93 454 -325 506 -589 15 -72 14 -83 -5 -175 -24 -119 -89 -259 -155 -333 -62 -70 -172 -150 -248 -180 -92 -37 -231 -64 -329 -64 -209 0 -431 110 -538 269 -102 149 -128 237 -112 373 34 281 164 521 344 635 164 103 363 127 537 64z m-3008 -250 c153 -60 339 -141 508 -221 341 -160 349 -163 492 -211 212 -71 383 -111 499 -116 l106 -5 21 -107 c83 -420 410 -780 805 -886 255 -69 504 -66 737 7 96 30 275 117 361 175 222 151 415 425 490 698 l23 82 75 17 c102 24 400 107 596 166 326 100 458 151 724 281 111 55 205 98 208 95 3 -2 0 -71 -7 -153 -6 -81 -15 -526 -20 -988 -11 -1002 -18 -1160 -54 -1269 -64 -190 -160 -312 -293 -372 -73 -33 -165 -42 -597 -59 -209 -9 -429 -21 -490 -27 -151 -15 -784 -16 -1211 -1 -744 27 -1083 33 -1735 33 -766 0 -755 -1 -909 77 -125 63 -209 140 -256 237 -57 118 -71 257 -85 890 -10 466 -21 720 -45 1031 -15 207 -30 655 -22 655 3 0 39 -13 79 -29z"/>
  </g>
</svg>