<svg version="1.0" xmlns="http://www.w3.org/2000/svg" width="800.000000" height="800.000000" viewBox="0 0 800.000000 800.000000" preserveAspectRatio="xMidYMid meet">
  <metadata>
    <rdf:RDF xmlns:rdf="http://www.w3.org/1999/02/22-rdf-syntax-ns#" xmlns:rdfs="http://www.w3.org/2000/01/rdf-schema#" xmlns:dc="http://purl.org/dc/elements/1.1/">
      <rdf:Description dc:format="image/svg+xml" dc:Label="1" dc:ContentProducer="001191330110MACRLGPT8B00000" dc:ProduceID="374709141" dc:ReservedCode1="AUvlHkOUFNarBnsvqy9mZ9Rsv7ha81UpZwqpeVwPogE=" dc:ContentPropagator="001191330110MACRLGPT8B00000" dc:PropagateID="374709141" dc:ReservedCode2="AUvlHkOUFNarBnsvqy9mZ9Rsv7ha81UpZwqpeVwPogE="/>
    </rdf:RDF>
  </metadata>
  <g transform="translate(190.005947,617.602180) scale(0.052499,-0.052499)" fill="#000000" stroke="none">
    <path d="M1300 7519 c-448 -26 -579 -43 -732 -99 -184 -67 -352 -201 -462 -369 -114 -174 -106 -121 -106 -720 l0 -521 37 -41 c44 -49 91 -74 163 -87 130 -24 1150 -63 1642 -62 114 0 361 -7 550 -16 288 -13 411 -14 768 -4 601 15 1199 37 1375 51 83 6 290 10 460 8 1254 -11 2167 1 2420 31 52 7 92 7 115 0 110 -32 231 93 276 286 11 49 17 140 21 319 10 472 -37 663 -214 882 -104 129 -243 221 -395 263 -185 50 -626 86 -848 70 -266 -19 -3985 -12 -4325 9 -201 12 -540 12 -745 0z m5070 -377 c389 -23 667 -55 750 -88 114 -44 213 -141 265 -259 77 -172 113 -474 86 -720 -6 -59 -7 -60 -45 -73 -21 -7 -193 -21 -390 -33 -316 -18 -426 -20 -1101 -15 -412 3 -878 9 -1035 14 -297 9 -843 1 -1330 -19 -357 -15 -980 -15 -1165 0 -77 6 -309 15 -515 21 -206 6 -415 14 -465 20 -212 22 -507 32 -822 28 l-333 -4 0 70 c0 103 26 339 49 447 52 252 150 399 321 482 130 63 144 65 685 103 135 10 486 20 850 26 341 5 676 12 745 16 69 4 789 7 1600 6 1390 0 1497 -2 1850 -22z"/>
    <path d="M1655 4859 c-331 -7 -821 -29 -1135 -49 -297 -20 -413 -51 -485 -131 l-35 -39 0 -1578 c0 -1558 0 -1578 20 -1630 61 -159 143 -286 251 -386 175 -162 359 -234 690 -271 167 -19 714 -18 1924 5 538 10 781 10 1165 0 902 -22 1335 -24 1710 -7 190 9 509 19 710 22 390 5 539 15 689 45 279 56 454 240 575 602 49 148 75 301 87 513 10 185 32 502 49 705 5 63 10 207 10 320 1 113 5 293 10 400 7 129 6 305 -1 520 -9 288 -13 338 -36 440 -34 154 -36 143 18 151 49 7 82 21 112 47 13 11 17 31 17 78 0 59 -2 64 -32 88 -42 31 -124 55 -213 61 -38 3 -153 12 -255 20 -102 8 -385 21 -630 30 -245 8 -519 18 -610 21 -581 20 -3968 38 -4605 23z m4885 -338 c118 -6 307 -16 420 -23 113 -6 295 -13 405 -14 l200 -3 8 -43 c11 -55 1 -710 -13 -888 -6 -74 -15 -322 -20 -550 -5 -228 -14 -451 -19 -495 -6 -44 -20 -190 -30 -325 -24 -289 -35 -371 -66 -505 -67 -284 -184 -431 -376 -474 -111 -25 -639 -66 -719 -56 -25 3 -184 -1 -355 -10 -810 -40 -1205 -41 -1935 -4 -126 7 -644 9 -1350 7 -630 -1 -1221 -3 -1315 -2 -481 3 -708 65 -880 238 -144 146 -195 313 -215 701 -26 529 -30 742 -19 940 7 118 9 333 6 525 -2 179 -2 453 2 610 l6 285 320 6 c176 4 408 14 515 23 321 26 728 40 1870 66 476 11 3308 4 3560 -9z"/>
    <path d="M6345 3108 c-177 -16 -299 -20 -785 -21 -614 -3 -621 -3 -708 -53 -57 -34 -84 -78 -136 -224 -51 -145 -108 -291 -201 -515 -95 -228 -105 -258 -105 -321 0 -112 77 -188 220 -218 151 -31 239 -35 952 -42 752 -6 784 -5 863 33 42 21 94 72 115 113 23 46 191 549 224 670 40 150 59 282 54 379 -5 101 -25 150 -76 189 -32 24 -45 27 -121 29 -47 0 -180 -8 -296 -19z m217 -253 c3 -3 -6 -45 -19 -93 -28 -98 -69 -213 -236 -657 l-23 -60 -769 4 c-424 2 -771 5 -773 6 -2 2 36 97 73 180 33 75 184 463 190 488 5 17 15 29 29 31 20 4 96 8 776 41 271 14 694 48 725 60 15 5 21 5 27 0z"/>
  </g>
</svg>