<svg version="1.0" xmlns="http://www.w3.org/2000/svg" width="800.000000" height="800.000000" viewBox="0 0 800.000000 800.000000" preserveAspectRatio="xMidYMid meet">
  <metadata>
    <rdf:RDF xmlns:rdf="http://www.w3.org/1999/02/22-rdf-syntax-ns#" xmlns:rdfs="http://www.w3.org/2000/01/rdf-schema#" xmlns:dc="http://purl.org/dc/elements/1.1/">
      <rdf:Description dc:format="image/svg+xml" dc:Label="1" dc:ContentProducer="001191330110MACRLGPT8B00000" dc:ProduceID="374709137" dc:ReservedCode1="2njlNaRgXlLSMj6KTfS3jsEsp/NNDqLYXjkJiCa94N8=" dc:ContentPropagator="001191330110MACRLGPT8B00000" dc:PropagateID="374709137" dc:ReservedCode2="2njlNaRgXlLSMj6KTfS3jsEsp/NNDqLYXjkJiCa94N8="/>
    </rdf:RDF>
  </metadata>
  <g transform="translate(186.670196,627.807034) scale(0.055201,-0.055201)" fill="#000000" stroke="none">
    <path d="M3585 7889 c-240 -23 -710 -120 -905 -188 -395 -135 -741 -310 -1040 -524 -306 -219 -754 -626 -871 -792 -75 -106 -187 -308 -265 -476 -94 -204 -258 -673 -313 -894 -233 -937 -154 -1820 234 -2596 225 -452 551 -889 879 -1177 137 -121 199 -169 346 -264 187 -121 312 -188 560 -300 160 -73 569 -202 813 -257 271 -61 332 -66 787 -66 379 0 428 2 560 22 399 62 722 151 1005 280 439 200 889 532 1321 976 173 177 277 311 389 499 88 146 266 493 313 608 111 273 195 616 247 1005 25 189 27 216 22 495 -8 415 -37 607 -142 925 -201 609 -356 922 -649 1310 -145 192 -431 467 -671 645 -260 194 -672 415 -950 510 -82 28 -229 71 -325 95 -96 24 -218 55 -270 68 -320 84 -497 107 -785 106 -110 -1 -240 -6 -290 -10z m540 -624 c270 -30 669 -129 932 -231 332 -129 748 -409 1043 -704 343 -343 547 -679 725 -1201 142 -414 187 -653 188 -989 0 -107 -5 -238 -12 -290 -66 -508 -156 -822 -343 -1195 -164 -328 -327 -541 -617 -802 -133 -121 -212 -181 -446 -338 -104 -70 -221 -149 -260 -176 -119 -80 -334 -186 -518 -253 -170 -63 -468 -136 -642 -157 -129 -15 -511 -15 -640 1 -312 38 -729 150 -1039 280 -272 114 -501 250 -693 412 -178 150 -488 548 -678 872 -159 271 -316 658 -383 946 -48 202 -56 291 -57 590 0 229 4 325 18 430 64 483 190 852 447 1306 249 440 552 736 1075 1046 340 202 628 307 1095 397 350 67 571 83 805 56z"/>
    <path d="M3709 5706 c-75 -21 -126 -64 -310 -258 -96 -101 -255 -261 -354 -357 -351 -340 -671 -667 -707 -721 -94 -144 -90 -331 10 -486 39 -60 90 -108 267 -251 100 -81 400 -380 655 -652 169 -181 310 -307 377 -338 153 -71 334 -47 463 62 25 20 149 140 276 265 128 125 337 319 465 432 441 387 532 477 587 588 24 49 27 66 27 155 0 93 -3 104 -32 161 -45 85 -115 158 -251 260 -325 244 -786 684 -1032 985 -62 76 -90 102 -141 129 -57 30 -72 34 -158 36 -60 2 -114 -2 -142 -10z m349 -992 c204 -225 402 -416 529 -512 34 -26 62 -49 63 -52 0 -5 -504 -507 -687 -685 l-83 -79 -32 30 c-18 17 -67 57 -108 90 -69 55 -670 637 -679 658 -2 5 134 144 301 310 168 165 340 341 383 389 42 48 83 87 90 85 7 -2 108 -107 223 -234z"/>
  </g>
</svg>