<svg version="1.0" xmlns="http://www.w3.org/2000/svg" width="800.000000" height="800.000000" viewBox="0 0 800.000000 800.000000" preserveAspectRatio="xMidYMid meet">
  <metadata>
    <rdf:RDF xmlns:rdf="http://www.w3.org/1999/02/22-rdf-syntax-ns#" xmlns:rdfs="http://www.w3.org/2000/01/rdf-schema#" xmlns:dc="http://purl.org/dc/elements/1.1/">
      <rdf:Description dc:format="image/svg+xml" dc:Label="1" dc:ContentProducer="001191330110MACRLGPT8B00000" dc:ProduceID="374708466" dc:ReservedCode1="ZwJfa54EofmCkiA0xsYt/IMD193SAqdDMBHqILvoOyg=" dc:ContentPropagator="001191330110MACRLGPT8B00000" dc:PropagateID="374708466" dc:ReservedCode2="ZwJfa54EofmCkiA0xsYt/IMD193SAqdDMBHqILvoOyg="/>
    </rdf:RDF>
  </metadata>
  <g transform="translate(190.024413,622.285565) scale(0.053825,-0.053825)" fill="#000000" stroke="none">
    <path d="M300 7910 c-78 -16 -183 -59 -240 -99 l-55 -38 -3 -175 -2 -176 51 -45 c71 -62 142 -95 240 -114 282 -51 388 -96 516 -216 100 -95 145 -161 228 -332 118 -242 150 -374 204 -850 36 -310 67 -506 127 -795 51 -245 65 -330 94 -555 11 -88 32 -225 46 -305 14 -80 30 -172 35 -205 15 -94 95 -410 130 -515 75 -227 237 -570 342 -725 118 -173 309 -336 474 -404 127 -52 289 -94 433 -111 105 -12 522 -13 730 0 316 19 670 23 957 12 375 -15 1468 -29 1648 -21 353 16 580 129 744 368 124 182 184 331 320 806 114 396 212 824 310 1345 22 118 61 325 86 460 92 488 104 615 71 770 -43 200 -153 400 -287 524 -178 164 -487 249 -854 233 -77 -4 -255 -14 -395 -22 -219 -14 -336 -15 -835 -5 -319 5 -753 15 -965 22 -383 11 -915 2 -1215 -22 -256 -21 -1040 -6 -1255 24 -183 25 -181 24 -239 156 -68 157 -165 346 -221 430 -175 263 -486 484 -791 561 -95 24 -350 35 -429 19z m343 -285 c236 -42 427 -140 587 -304 139 -141 229 -307 310 -568 32 -103 49 -143 80 -182 68 -85 156 -135 299 -167 122 -27 789 -39 1271 -23 659 22 2041 11 2670 -21 129 -7 262 -6 440 3 140 7 336 11 435 11 159 -1 191 -4 279 -27 115 -31 170 -61 248 -134 94 -90 159 -242 174 -408 8 -85 -8 -254 -42 -450 -13 -77 -33 -205 -44 -283 -11 -79 -31 -205 -45 -280 -23 -123 -42 -215 -131 -637 -99 -463 -281 -1033 -405 -1266 -70 -130 -193 -228 -338 -268 -182 -50 -263 -52 -2266 -38 -1160 7 -1233 10 -1370 43 -115 29 -249 89 -325 146 -178 135 -360 449 -494 851 -85 255 -129 447 -181 792 -53 356 -73 465 -110 621 -65 267 -133 690 -170 1064 -20 199 -56 374 -111 536 -37 112 -161 363 -231 469 -164 246 -413 387 -775 439 -162 22 -194 43 -105 67 117 31 223 36 350 14z"/>
    <path d="M2845 2000 c-130 -21 -259 -73 -360 -145 -169 -120 -312 -335 -361 -540 -21 -89 -18 -256 6 -349 110 -432 587 -716 1004 -596 190 54 381 188 507 355 109 144 147 229 175 387 16 87 16 101 1 190 -21 123 -47 192 -107 281 -104 156 -244 283 -383 348 -131 61 -340 91 -482 69z m227 -291 c88 -18 174 -65 249 -136 115 -109 176 -230 186 -369 7 -104 -11 -169 -77 -268 -118 -175 -305 -286 -485 -286 -286 0 -525 231 -525 507 0 96 13 148 66 261 73 158 197 262 346 291 63 13 179 13 240 0z"/>
    <path d="M5740 2004 c-207 -26 -322 -83 -478 -235 -192 -189 -282 -374 -282 -584 0 -303 201 -614 484 -750 311 -149 667 -110 911 102 89 77 136 140 199 263 83 163 111 287 103 453 -10 209 -66 334 -226 500 -155 162 -338 243 -565 251 -61 2 -127 2 -146 0z m251 -310 c165 -48 286 -165 344 -330 35 -98 35 -240 0 -337 -102 -292 -340 -429 -619 -357 -209 53 -359 203 -412 411 -20 76 -15 190 11 264 43 123 182 290 280 337 57 27 67 28 201 28 99 0 156 -5 195 -16z"/>
  </g>
</svg>