<svg version="1.0" xmlns="http://www.w3.org/2000/svg" width="800.000000" height="800.000000" viewBox="0 0 800.000000 800.000000" preserveAspectRatio="xMidYMid meet">
  <metadata>
    <rdf:RDF xmlns:rdf="http://www.w3.org/1999/02/22-rdf-syntax-ns#" xmlns:rdfs="http://www.w3.org/2000/01/rdf-schema#" xmlns:dc="http://purl.org/dc/elements/1.1/">
      <rdf:Description dc:format="image/svg+xml" dc:Label="1" dc:ContentProducer="001191330110MACRLGPT8B00000" dc:ProduceID="374708947" dc:ReservedCode1="QgwZmgihGqmRJ0kPbwTA3Pu9qGXDo489dwHUYph9Xvs=" dc:ContentPropagator="001191330110MACRLGPT8B00000" dc:PropagateID="374708947" dc:ReservedCode2="QgwZmgihGqmRJ0kPbwTA3Pu9qGXDo489dwHUYph9Xvs="/>
    </rdf:RDF>
  </metadata>
  <g transform="translate(186.115404,624.693134) scale(0.054781,-0.054781)" fill="#000000" stroke="none">
    <path d="M2967 7605 c-202 -33 -495 -126 -679 -215 -172 -84 -381 -228 -519 -358 -145 -136 -449 -704 -534 -999 -53 -182 -70 -491 -40 -709 37 -263 126 -526 261 -770 166 -298 452 -586 707 -710 31 -16 56 -33 54 -38 -2 -7 -91 -47 -207 -93 -206 -81 -448 -196 -580 -276 -124 -75 -378 -284 -490 -403 -312 -331 -593 -826 -759 -1337 -84 -259 -117 -477 -109 -736 4 -142 7 -163 29 -207 13 -26 41 -62 62 -78 35 -28 46 -31 110 -31 87 0 124 21 157 91 19 38 24 72 31 212 27 505 98 783 291 1151 186 354 320 530 579 762 346 310 721 475 1494 655 111 26 135 28 330 28 238 0 303 -9 525 -76 362 -108 623 -232 976 -464 466 -306 751 -645 962 -1144 108 -255 188 -626 200 -921 7 -158 8 -168 37 -224 52 -101 152 -147 249 -115 45 14 100 78 120 138 58 170 -49 800 -201 1182 -172 433 -514 917 -839 1189 -123 103 -302 230 -432 308 -140 84 -441 236 -550 278 -48 18 -88 38 -90 44 -2 6 16 20 40 30 77 33 370 212 439 268 192 155 389 415 544 718 79 154 112 246 145 405 48 231 46 401 -6 755 -58 394 -103 518 -288 795 -285 426 -740 742 -1208 840 -246 51 -661 79 -811 55z m558 -406 c171 -23 271 -48 394 -100 178 -74 322 -172 485 -329 230 -223 346 -410 415 -672 104 -393 111 -732 20 -1002 -58 -174 -216 -440 -369 -622 -120 -142 -293 -270 -515 -379 -438 -216 -841 -222 -1381 -19 -239 89 -484 275 -649 493 -122 160 -259 474 -312 712 -26 120 -26 490 0 599 25 106 95 278 188 463 123 246 201 357 335 477 306 272 732 421 1154 403 52 -3 158 -13 235 -24z"/>
    <path d="M2900 6893 c-117 -43 -380 -210 -496 -317 -126 -115 -243 -293 -397 -601 -90 -181 -101 -213 -102 -300 0 -73 3 -84 30 -125 82 -122 233 -113 299 18 13 26 38 92 56 147 73 222 169 394 288 517 105 109 169 155 337 243 72 38 145 80 162 93 51 38 76 86 76 146 0 78 -35 132 -110 170 -31 15 -111 20 -143 9z"/>
    <path d="M5661 6775 c-109 -35 -164 -154 -111 -240 25 -40 64 -67 215 -145 66 -34 155 -83 199 -109 282 -166 439 -391 561 -806 21 -68 28 -120 32 -215 6 -139 -4 -192 -74 -399 -59 -176 -102 -250 -227 -393 -93 -107 -183 -175 -311 -238 -128 -62 -262 -97 -445 -115 -242 -25 -301 -41 -374 -105 -139 -122 -55 -273 180 -324 38 -8 155 -31 259 -50 364 -68 648 -170 850 -306 175 -118 417 -343 520 -484 130 -178 232 -358 274 -482 38 -115 92 -431 101 -589 8 -162 19 -200 68 -252 39 -42 95 -56 163 -42 112 23 167 91 190 236 10 62 9 90 -5 180 -10 60 -26 143 -37 187 -31 121 -173 543 -209 621 -88 185 -238 392 -430 589 -219 225 -345 320 -585 441 -77 39 -186 86 -242 105 -57 19 -103 38 -103 42 0 4 24 20 53 34 179 91 368 252 466 398 53 78 131 223 163 301 76 189 114 311 133 429 20 121 19 351 -1 456 -19 101 -118 389 -166 485 -114 225 -292 430 -483 557 -102 68 -344 194 -425 221 -70 23 -149 28 -199 12z"/>
    <path d="M3165 3096 c-84 -36 -133 -144 -145 -316 -9 -139 -37 -626 -51 -915 -6 -115 -15 -268 -20 -340 -5 -71 -9 -183 -9 -248 0 -145 15 -180 116 -278 79 -76 122 -94 198 -85 192 22 272 107 269 286 -1 41 -6 183 -12 315 -6 132 -15 359 -20 505 -6 146 -15 317 -21 380 -5 63 -15 198 -20 300 -12 201 -25 271 -64 330 -45 68 -147 98 -221 66z"/>
  </g>
</svg>