<svg version="1.0" xmlns="http://www.w3.org/2000/svg" width="800.000000" height="800.000000" viewBox="0 0 800.000000 800.000000" preserveAspectRatio="xMidYMid meet">
  <metadata>
    <rdf:RDF xmlns:rdf="http://www.w3.org/1999/02/22-rdf-syntax-ns#" xmlns:rdfs="http://www.w3.org/2000/01/rdf-schema#" xmlns:dc="http://purl.org/dc/elements/1.1/">
      <rdf:Description dc:format="image/svg+xml" dc:Label="1" dc:ContentProducer="001191330110MACRLGPT8B00000" dc:ProduceID="374708468" dc:ReservedCode1="rbY5paJsnDieka99bQmUO3SCQPpNPG865w9SrUXCfuk=" dc:ContentPropagator="001191330110MACRLGPT8B00000" dc:PropagateID="374708468" dc:ReservedCode2="rbY5paJsnDieka99bQmUO3SCQPpNPG865w9SrUXCfuk="/>
    </rdf:RDF>
  </metadata>
  <g transform="translate(194.247390,623.065547) scale(0.054133,-0.054133)" fill="#000000" stroke="none">
    <path d="M1305 7965 c-213 -93 -395 -275 -520 -522 -38 -77 -90 -218 -106 -293 -40 -187 -40 -188 -49 -990 -5 -432 -13 -888 -19 -1015 -27 -614 -23 -1159 14 -1730 7 -122 16 -492 20 -830 6 -670 12 -745 66 -886 78 -202 231 -349 422 -403 l58 -17 -6 -162 c-15 -354 45 -580 192 -717 109 -102 232 -150 388 -150 285 0 525 166 611 420 17 48 18 79 15 250 -3 107 -5 229 -5 270 l-1 75 165 8 c265 13 695 10 970 -7 640 -39 811 -42 1115 -16 233 19 511 30 598 24 l89 -7 -5 -36 c-2 -20 -12 -83 -22 -141 -13 -79 -16 -137 -11 -235 9 -220 52 -333 170 -450 128 -127 254 -171 466 -163 133 6 184 21 286 84 150 93 244 238 274 425 11 70 11 471 -1 507 -3 9 20 21 71 36 155 45 276 136 353 263 90 147 112 280 104 618 -3 138 -11 304 -18 370 -17 170 -17 750 0 1215 12 309 13 500 5 880 -6 298 -6 728 0 1115 15 1049 13 1191 -19 1385 -22 133 -41 191 -95 300 -58 116 -115 193 -212 286 -118 114 -258 197 -425 253 l-62 21 -2398 0 -2398 0 -80 -35z m2875 -204 c426 -6 870 -15 985 -21 116 -6 289 -15 385 -20 277 -14 433 -41 580 -100 242 -96 403 -259 463 -470 21 -72 53 -261 72 -430 25 -207 33 -2762 11 -3307 -9 -210 -16 -576 -16 -812 0 -560 -16 -720 -83 -833 -39 -65 -77 -85 -237 -126 -283 -73 -208 -69 -1065 -63 -192 1 -426 -3 -520 -9 -291 -19 -628 -23 -790 -11 -957 76 -1193 81 -1915 36 -292 -19 -429 -15 -615 14 -211 33 -277 60 -335 137 -61 80 -70 132 -90 549 -33 663 -40 805 -51 1006 -5 108 -14 277 -19 375 -12 220 4 1180 25 1584 8 157 19 551 25 875 11 633 18 780 50 936 40 196 144 378 275 479 56 43 165 99 240 123 112 36 361 67 695 87 96 6 195 12 220 14 66 5 822 -1 1710 -13z m1490 -6520 c0 -13 -82 -131 -91 -131 -9 0 -13 133 -5 141 7 7 96 -2 96 -10z m-4092 -6 c2 -2 -23 -38 -55 -80 -66 -87 -70 -85 -72 33 l-1 64 63 -7 c34 -4 63 -9 65 -10z m316 -37 c-45 -48 -161 -186 -245 -293 -112 -141 -127 -176 -93 -209 8 -9 28 -16 43 -16 51 0 201 158 504 530 l29 35 -6 -50 c-4 -27 -11 -126 -17 -219 -10 -180 -21 -220 -74 -290 -30 -40 -119 -89 -194 -106 -127 -30 -254 15 -303 106 -34 63 -56 150 -60 233 -3 60 -2 64 20 66 31 2 112 83 179 178 l55 77 101 0 101 0 -40 -42z m4104 31 c-2 -6 -42 -60 -88 -121 -227 -297 -291 -378 -299 -378 -14 0 -31 93 -31 168 0 68 10 92 38 92 22 0 175 143 213 199 l34 50 68 1 c45 0 67 -4 65 -11z m179 -216 c-8 -231 -29 -297 -118 -378 -62 -56 -101 -69 -204 -69 -95 0 -168 23 -172 54 -1 8 23 35 53 60 80 64 299 315 399 458 17 23 34 42 39 42 5 0 6 -71 3 -167z"/>
    <path d="M4510 7599 c-216 -19 -257 -19 -988 -9 -616 9 -773 9 -820 -1 -73 -17 -165 -79 -209 -143 -130 -189 -46 -477 162 -555 101 -38 202 -41 1275 -37 1155 5 1076 0 1173 77 102 81 154 202 144 338 -11 162 -93 262 -263 322 -84 29 -210 32 -474 8z m-1580 -275 c0 -3 -8 -18 -19 -32 -10 -15 -24 -44 -31 -66 -10 -33 -10 -40 4 -54 12 -12 23 -14 52 -6 47 12 77 51 84 112 l5 47 63 0 c34 -1 134 -2 223 -3 l160 -2 -44 -57 c-24 -32 -52 -72 -62 -89 l-18 -31 -241 4 c-262 5 -344 14 -363 40 -16 20 -17 97 -3 124 9 17 22 19 100 19 50 0 90 -3 90 -6z m1997 -9 c59 -41 46 -142 -21 -170 -39 -16 -281 -22 -290 -7 -3 5 13 26 35 48 22 21 54 60 70 86 29 45 33 47 82 51 29 2 63 4 77 5 14 1 35 -5 47 -13z m-397 0 c0 -3 -37 -49 -82 -102 l-82 -95 -208 4 c-114 2 -210 7 -214 10 -3 4 27 43 67 87 l73 81 130 1 c72 1 165 5 206 9 41 4 83 7 93 8 9 1 17 0 17 -3z m-650 -10 c0 -7 -122 -158 -135 -167 -12 -9 -152 -8 -177 1 -13 5 -3 22 55 89 l71 82 93 0 c51 0 93 -2 93 -5z"/>
    <path d="M3018 6645 c-4 -4 -389 -10 -855 -14 -800 -6 -850 -7 -883 -25 -76 -40 -111 -92 -129 -189 -7 -40 -8 -200 -1 -530 7 -325 6 -554 -1 -734 -13 -297 -7 -640 10 -695 18 -56 70 -119 121 -145 58 -30 165 -52 260 -53 259 -3 1399 8 1409 14 25 16 1043 8 1281 -10 292 -21 707 -21 895 1 106 12 232 16 520 16 403 -1 644 17 726 53 74 31 132 114 160 226 18 72 19 471 1 705 -7 94 -15 370 -18 615 -2 245 -6 468 -9 495 -11 101 -74 187 -160 219 -65 25 -198 28 -1310 36 -654 4 -1374 11 -1600 15 -225 4 -413 4 -417 0z m2127 -295 c459 -15 1078 -40 1094 -45 9 -4 11 -15 7 -38 -9 -52 -31 -797 -28 -982 2 -157 -9 -449 -24 -622 l-7 -73 -36 -10 c-20 -6 -119 -15 -221 -20 -102 -5 -268 -19 -370 -31 -172 -20 -218 -21 -665 -16 -264 3 -541 11 -615 18 -92 8 -371 11 -880 10 -2003 -5 -1912 -8 -1970 54 l-25 27 -1 511 c-1 282 -5 671 -8 865 l-6 352 67 0 c37 0 232 -5 433 -11 300 -9 452 -8 855 5 270 9 519 18 555 20 117 7 1527 -4 1845 -14z"/>
    <path d="M2018 3170 c-166 -30 -319 -131 -415 -275 -67 -102 -93 -223 -74 -346 37 -233 200 -359 466 -359 195 0 320 56 428 191 122 154 140 373 45 566 -40 82 -136 173 -211 201 -63 24 -173 34 -239 22z m42 -316 c0 -9 -263 -264 -272 -264 -11 0 -10 16 4 63 16 54 106 145 177 180 52 26 91 34 91 21z m180 -172 c0 -103 -31 -151 -125 -193 -50 -22 -169 -37 -200 -25 -13 5 7 31 93 119 60 61 131 136 158 166 l49 53 12 -28 c7 -16 12 -57 13 -92z"/>
    <path d="M5482 3140 c-97 -26 -162 -62 -227 -128 -167 -169 -193 -458 -57 -654 48 -68 142 -139 217 -163 86 -29 257 -27 339 3 126 46 245 156 305 281 61 129 55 289 -15 430 -99 198 -328 292 -562 231z m157 -259 c10 -7 -18 -40 -115 -134 l-129 -125 -3 50 c-2 40 3 63 25 106 31 63 69 88 150 102 26 4 50 8 53 9 3 0 11 -3 19 -8z m166 -97 c23 -48 30 -133 15 -178 -16 -49 -54 -92 -104 -118 -60 -31 -257 -39 -256 -10 0 4 37 45 81 92 44 47 115 122 157 168 41 45 79 82 83 82 4 0 14 -16 24 -36z"/>
  </g>
</svg>