<svg version="1.0" xmlns="http://www.w3.org/2000/svg" width="800.000000" height="800.000000" viewBox="0 0 800.000000 800.000000" preserveAspectRatio="xMidYMid meet">
  <metadata>
    <rdf:RDF xmlns:rdf="http://www.w3.org/1999/02/22-rdf-syntax-ns#" xmlns:rdfs="http://www.w3.org/2000/01/rdf-schema#" xmlns:dc="http://purl.org/dc/elements/1.1/">
      <rdf:Description dc:format="image/svg+xml" dc:Label="1" dc:ContentProducer="001191330110MACRLGPT8B00000" dc:ProduceID="374708788" dc:ReservedCode1="oC6UggvHz74XhNycBeS50WYiIupvcWHDR9ox02he76k=" dc:ContentPropagator="001191330110MACRLGPT8B00000" dc:PropagateID="374708788" dc:ReservedCode2="oC6UggvHz74XhNycBeS50WYiIupvcWHDR9ox02he76k="/>
    </rdf:RDF>
  </metadata>
  <g transform="translate(189.903899,625.355049) scale(0.053527,-0.053527)" fill="#000000" stroke="none">
    <path d="M4156 7947 c-226 -156 -446 -397 -684 -749 -47 -71 -91 -128 -99 -128 -7 0 -72 31 -145 69 -386 200 -748 291 -1153 291 -193 0 -289 -10 -462 -49 -143 -31 -197 -69 -209 -146 -13 -90 38 -143 180 -189 128 -42 436 -225 575 -342 89 -74 141 -134 228 -264 43 -64 113 -190 113 -204 0 -2 -46 -29 -102 -60 -262 -144 -477 -348 -611 -581 -97 -169 -190 -465 -222 -710 -32 -247 10 -676 84 -848 25 -58 81 -113 130 -128 99 -30 177 29 229 173 83 230 235 455 438 648 93 88 242 202 301 230 50 23 132 45 140 36 3 -3 0 -124 -7 -268 -11 -234 -10 -279 4 -408 39 -335 101 -521 276 -825 159 -278 418 -587 544 -650 88 -44 178 -28 213 38 24 44 22 165 -6 295 -41 201 -23 625 40 887 26 112 75 226 135 317 60 91 195 228 224 228 28 0 97 -144 175 -361 175 -487 282 -965 339 -1519 26 -250 35 -815 16 -1026 -24 -261 -94 -748 -116 -802 -20 -51 -61 -88 -113 -102 -67 -18 -410 -40 -780 -50 -196 -5 -486 -14 -645 -20 -159 -6 -291 -9 -293 -6 -3 3 9 23 27 44 28 35 40 42 94 52 87 16 173 66 218 125 88 116 104 242 91 740 -4 182 -7 384 -6 450 4 193 -16 652 -33 755 -36 228 -154 355 -384 415 -108 28 -120 38 -120 103 0 71 -29 177 -62 227 -47 71 -106 96 -248 106 -166 11 -598 11 -659 -1 -62 -12 -105 -40 -127 -82 -20 -39 -44 -184 -44 -268 l0 -66 -103 -11 c-120 -14 -183 -33 -251 -76 -104 -66 -178 -204 -196 -368 -16 -139 -29 -489 -36 -979 -7 -499 3 -728 36 -827 40 -115 140 -196 278 -223 35 -7 62 -18 62 -25 0 -7 11 -33 25 -59 l24 -46 -137 -2 c-75 -2 -378 -3 -672 -3 l-535 0 -50 -25 c-78 -39 -105 -111 -65 -175 25 -41 51 -51 175 -69 147 -21 2215 -3 3655 33 730 18 804 23 927 73 108 44 192 134 233 249 21 62 59 283 85 499 9 74 21 171 26 215 27 203 20 884 -11 1205 -45 450 -140 931 -250 1260 -65 195 -58 178 -259 610 -110 236 -164 290 -289 290 -93 0 -165 -41 -293 -169 -227 -225 -342 -480 -389 -863 -8 -61 -11 -184 -8 -332 2 -171 0 -232 -8 -225 -21 17 -152 214 -214 322 -205 358 -262 601 -259 1114 2 303 -5 358 -56 435 -56 85 -192 120 -321 83 -151 -43 -347 -180 -551 -384 -140 -139 -218 -237 -295 -365 -28 -46 -50 -73 -53 -65 -8 23 -25 216 -25 283 0 100 38 329 75 451 106 347 244 517 610 748 131 83 210 153 232 206 34 79 12 193 -59 321 -111 196 -205 322 -365 486 -117 121 -199 183 -316 240 -31 15 -57 32 -57 37 0 18 295 -10 470 -44 246 -49 566 -157 783 -265 159 -80 249 -89 326 -34 21 16 92 99 157 186 65 86 163 207 218 268 127 141 344 361 350 355 3 -2 -6 -58 -19 -124 -54 -275 -71 -609 -39 -762 36 -175 114 -253 254 -253 57 0 76 7 263 96 370 177 647 246 982 247 172 0 245 -11 404 -61 80 -26 102 -43 64 -50 -49 -9 -250 -80 -345 -122 -142 -63 -313 -161 -382 -219 -103 -85 -142 -175 -116 -272 9 -32 27 -59 68 -99 47 -45 91 -72 247 -148 105 -52 240 -127 300 -167 213 -142 496 -395 595 -533 52 -71 141 -224 135 -230 -2 -2 -39 16 -82 41 -132 75 -193 103 -323 145 -232 75 -399 101 -716 109 -476 12 -709 -45 -775 -192 -23 -49 -24 -101 -4 -170 15 -50 228 -442 410 -755 185 -316 359 -649 478 -910 8 -19 42 -93 75 -165 79 -174 241 -589 292 -749 129 -401 202 -790 245 -1302 9 -100 22 -208 31 -240 45 -174 124 -260 274 -299 58 -15 107 -16 435 -10 369 7 371 7 515 -19 199 -36 233 -35 275 7 56 56 58 162 5 230 -11 14 -41 36 -68 49 -47 23 -48 23 -554 28 -495 5 -507 5 -535 26 -39 29 -50 71 -63 236 -36 484 -140 1009 -281 1423 -79 230 -258 667 -376 918 -234 496 -405 806 -669 1209 -124 190 -219 357 -208 367 35 33 276 56 498 48 190 -7 370 -29 516 -63 197 -46 283 -79 472 -182 145 -78 214 -102 290 -102 145 0 210 97 173 255 -28 124 -118 324 -203 455 -74 115 -283 321 -497 491 -233 185 -328 248 -537 350 -94 47 -94 46 27 119 156 94 390 175 669 231 168 33 207 48 241 93 56 74 35 166 -52 230 -57 42 -232 129 -359 180 -218 86 -450 124 -692 112 -320 -16 -587 -94 -1006 -296 -65 -32 -90 -40 -96 -30 -15 25 -21 202 -10 327 16 180 66 468 124 713 9 36 16 80 16 98 l0 32 -198 0 -198 0 -78 -53z m-1648 -4511 c7 -87 21 -82 -235 -91 -126 -5 -255 -9 -288 -9 l-60 -1 -7 64 c-4 35 -6 67 -4 70 2 3 136 6 298 6 l293 0 3 -39z m200 -403 c191 -61 229 -81 254 -133 19 -38 41 -157 59 -315 16 -144 24 -1027 10 -1214 -12 -165 -25 -210 -67 -238 -27 -17 -65 -18 -759 -15 -720 4 -731 4 -767 25 -74 41 -83 88 -109 562 -18 340 2 821 48 1104 14 87 21 110 45 137 35 39 39 40 321 59 125 8 238 17 250 19 12 3 74 17 137 31 136 31 262 44 345 38 33 -3 137 -30 233 -60z m-818 -2178 c0 -2 -17 -16 -37 -30 -29 -19 -50 -25 -91 -25 -61 0 -122 22 -122 44 0 14 19 16 125 16 69 0 125 -2 125 -5z m440 -47 c14 -25 33 -55 43 -65 9 -11 17 -23 17 -26 0 -9 -364 -9 -373 -1 -4 4 2 19 12 33 10 14 28 45 40 69 l22 43 107 -3 107 -3 25 -47z m435 42 c9 -15 -12 -38 -56 -61 -43 -21 -93 -24 -136 -8 -40 15 -94 59 -88 70 9 13 272 12 280 -1z"/>
    <path d="M1712 2755 c-73 -61 -94 -225 -96 -730 -1 -457 14 -565 86 -616 37 -27 108 -36 148 -19 78 32 90 101 90 530 0 417 -22 680 -66 790 -28 70 -107 92 -162 45z"/>
    <path d="M2554 2771 c-86 -37 -129 -210 -140 -566 -7 -196 8 -583 26 -676 23 -121 75 -179 165 -187 62 -5 97 10 147 66 75 84 105 212 118 522 15 333 -3 488 -62 524 -20 12 -54 -14 -71 -54 -9 -20 -12 -1 -18 103 -9 154 -23 218 -53 246 -26 25 -81 35 -112 22z"/>
    <path d="M5389 3077 c-61 -72 -73 -95 -59 -112 20 -24 66 -18 89 11 40 51 53 136 21 141 -8 2 -31 -16 -51 -40z"/>
    <path d="M5685 2642 c-64 -40 -297 -391 -416 -625 -48 -97 -59 -127 -59 -168 0 -40 5 -55 25 -74 38 -39 75 -33 122 18 104 113 389 659 409 785 5 32 2 44 -15 61 -26 26 -28 26 -66 3z"/>
    <path d="M5855 1932 c-44 -9 -191 -173 -439 -491 -92 -117 -181 -234 -197 -258 -58 -84 -57 -136 3 -173 67 -41 141 -20 223 64 146 149 458 651 481 773 11 60 -18 95 -71 85z"/>
    <path d="M5960 1331 c-47 -26 -294 -278 -373 -382 -72 -95 -42 -189 58 -189 54 0 110 44 232 181 151 169 202 243 218 316 6 28 2 37 -23 63 -35 34 -62 37 -112 11z"/>
  </g>
</svg>