<svg version="1.0" xmlns="http://www.w3.org/2000/svg" width="800.000000" height="800.000000" viewBox="0 0 800.000000 800.000000" preserveAspectRatio="xMidYMid meet">
  <metadata>
    <rdf:RDF xmlns:rdf="http://www.w3.org/1999/02/22-rdf-syntax-ns#" xmlns:rdfs="http://www.w3.org/2000/01/rdf-schema#" xmlns:dc="http://purl.org/dc/elements/1.1/">
      <rdf:Description dc:format="image/svg+xml" dc:Label="1" dc:ContentProducer="001191330110MACRLGPT8B00000" dc:ProduceID="374708625" dc:ReservedCode1="9ySl7dqjb9ApNHue+giFuqYjjIsikCvA0bvShMq3JX4=" dc:ContentPropagator="001191330110MACRLGPT8B00000" dc:PropagateID="374708625" dc:ReservedCode2="9ySl7dqjb9ApNHue+giFuqYjjIsikCvA0bvShMq3JX4="/>
    </rdf:RDF>
  </metadata>
  <g transform="translate(187.012998,625.648318) scale(0.054883,-0.054883)" fill="#000000" stroke="none">
    <path d="M2966 7924 c-131 -7 -309 -20 -395 -29 -86 -8 -271 -26 -411 -40 -140 -13 -271 -29 -291 -35 -55 -16 -114 -64 -146 -117 -23 -40 -28 -59 -28 -118 0 -84 19 -124 85 -173 25 -19 51 -47 58 -63 7 -17 51 -98 98 -181 158 -278 231 -453 255 -614 10 -69 9 -95 -6 -185 -48 -288 -148 -504 -394 -843 -98 -137 -297 -425 -435 -631 -206 -309 -397 -679 -527 -1020 -27 -71 -54 -141 -60 -154 -24 -56 -96 -298 -134 -449 -103 -409 -122 -826 -54 -1147 53 -251 174 -516 331 -730 76 -104 288 -310 410 -398 178 -130 338 -216 583 -315 503 -203 978 -314 1610 -377 189 -19 488 -25 699 -15 448 21 714 63 981 153 1009 343 1590 774 1855 1376 177 404 215 834 119 1356 -28 155 -71 303 -139 479 -198 512 -353 792 -680 1232 -449 602 -675 949 -791 1214 -37 84 -42 106 -47 192 -12 241 68 507 233 773 231 372 263 434 271 526 9 90 -14 167 -67 224 -73 79 -128 90 -301 58 -127 -23 -473 -23 -793 -1 -137 10 -396 23 -575 28 -179 6 -437 17 -573 25 -287 17 -410 17 -741 -1z m664 -364 c256 -11 418 -23 580 -45 58 -8 173 -21 255 -29 83 -9 247 -25 365 -37 138 -14 287 -23 417 -23 200 -1 202 -1 189 -21 -199 -307 -342 -695 -363 -981 l-6 -82 -226 -36 c-468 -75 -623 -90 -926 -90 -221 -1 -508 10 -910 35 -88 5 -206 12 -262 16 l-103 6 0 101 c0 127 -16 275 -36 346 -56 197 -167 440 -280 613 -36 55 -64 101 -62 102 2 2 55 8 118 15 63 6 210 26 325 45 260 42 364 55 530 64 72 5 137 9 145 9 8 1 121 -3 250 -8z m1570 -1703 c107 -247 326 -580 805 -1222 215 -287 361 -517 445 -699 98 -212 197 -487 250 -691 57 -223 65 -289 65 -565 0 -231 -2 -265 -23 -359 -46 -206 -129 -404 -237 -571 -76 -117 -294 -328 -440 -426 -339 -227 -779 -422 -1180 -523 -208 -52 -603 -91 -925 -91 -382 0 -744 39 -1089 116 -518 116 -954 282 -1236 469 -110 73 -319 279 -392 386 -204 298 -294 611 -280 973 12 328 86 679 218 1032 158 426 342 743 773 1337 328 451 453 639 533 800 24 48 47 87 51 87 37 -2 435 -49 438 -53 16 -16 -162 -576 -245 -771 -23 -54 -74 -162 -113 -240 -39 -78 -79 -165 -89 -195 -54 -156 19 -281 165 -281 31 0 70 7 85 15 51 26 108 104 183 248 89 173 114 230 185 422 121 330 146 416 188 643 13 68 25 126 28 129 3 3 99 0 213 -6 363 -19 730 -12 954 20 238 33 567 93 579 105 3 3 16 4 29 2 20 -2 31 -18 62 -91z"/>
    <path d="M5146 3335 c-50 -19 -75 -41 -92 -82 -19 -45 -17 -87 5 -131 26 -50 57 -77 184 -157 60 -38 110 -72 113 -76 2 -4 -13 -18 -33 -30 -21 -13 -88 -60 -150 -106 -295 -219 -520 -333 -798 -403 -476 -121 -973 -79 -1416 120 -187 83 -327 176 -507 334 -222 195 -247 211 -329 204 -84 -7 -138 -58 -149 -139 -13 -98 61 -199 286 -388 275 -231 496 -358 808 -465 499 -171 1050 -167 1607 10 247 79 600 283 871 504 l71 57 56 -101 c105 -190 142 -226 235 -226 64 0 106 16 157 61 126 111 92 274 -115 547 -75 98 -128 145 -333 292 -192 138 -281 183 -367 187 -40 2 -80 -3 -104 -12z"/>
  </g>
</svg>